<?xml version="1.0" encoding="UTF-8" standalone="no"?>
<!-- Created with Inkscape (http://www.inkscape.org/) -->

<svg
   version="1.1"
   id="svg2"
   xml:space="preserve"
   width="700"
   height="432"
   viewBox="0 0 700 432"
   sodipodi:docname="Draft_Slope_plot.svg"
   inkscape:version="1.1.2 (0a00cf5339, 2022-02-04, custom)"
   xmlns:inkscape="http://www.inkscape.org/namespaces/inkscape"
   xmlns:sodipodi="http://sodipodi.sourceforge.net/DTD/sodipodi-0.dtd"
   xmlns="http://www.w3.org/2000/svg"
   xmlns:svg="http://www.w3.org/2000/svg"><defs
     id="defs6"><clipPath
       clipPathUnits="userSpaceOnUse"
       id="clipPath46"><path
         d="m 8.22,19.4 h 511.3 V 267.92 H 8.22 Z"
         id="path44" /></clipPath><clipPath
       clipPathUnits="userSpaceOnUse"
       id="clipPath1171"><path
         d="M 18.58362,22.38481 H 1238.643 V 1028.9974 H 18.58362 Z"
         id="path1169" /></clipPath><clipPath
       clipPathUnits="userSpaceOnUse"
       id="clipPath1175"><path
         d="M 1238.6,1029 V 22.4 H 18.6 V 1029 Z"
         id="path1173" /></clipPath><clipPath
       clipPathUnits="userSpaceOnUse"
       id="clipPath1179"><path
         d="M 1238.6,1029 V 22.4 H 18.6 V 1029 Z"
         id="path1177" /></clipPath><clipPath
       clipPathUnits="userSpaceOnUse"
       id="clipPath1183"><path
         d="M 0,0 H 1220.0594 V 1006.6126 H 0 Z"
         id="path1181" /></clipPath><clipPath
       clipPathUnits="userSpaceOnUse"
       id="clipPath5735"><path
         id="path5737"
         style="stroke-width:0.999999"
         d="M 0.00150104,1650.0002 V -0.00186291 H 1275.0006 V 1650.0002 Z M 732.47303,956.13062 c 0.59463,0.0232 1.18431,-0.0278 1.75897,-0.18603 2.93601,-0.80807 5.56065,-2.90939 7.43793,-5.30708 1.29178,-1.64991 0.81012,-4.12667 1.49766,-6.10613 0.31009,-0.89272 0.97848,-1.61867 1.46748,-2.42738 3.00394,-4.16612 5.49082,-8.79546 7.30225,-13.66472 8.08844,-0.74849 11.54425,-0.72148 29.16376,-2.42236 9.54704,-0.92162 19.0953,-1.83009 28.62603,-2.90481 0.64421,0.43545 1.38403,0.45282 2.22133,-0.2411 1.09123,-0.12711 2.18623,-0.22309 3.27672,-0.35684 2.72296,-0.33371 8.7397,0.98834 8.0561,-1.66849 -0.62149,-2.41547 -2.4717,-4.08546 -4.62862,-5.57344 1.22447,-1.52543 2.18379,-3.15309 2.39221,-5.06083 0.25654,-2.34839 -4.58531,1.20721 -6.93036,1.49262 -0.23569,0.0288 -0.47276,0.0471 -0.70861,0.0754 -0.41203,-0.3099 -0.8209,-0.61966 -1.19107,-0.95486 -2.66291,-2.41148 -4.12061,-0.99559 -4.68389,1.59815 -9.13506,1.01188 -18.28639,1.8907 -27.43496,2.77413 -4.57905,0.44227 -3.84975,0.27319 -7.57865,0.63325 0.13149,-0.2429 0.28569,-0.47279 0.41209,-0.71867 0.15619,-0.30353 -0.018,-0.7026 -0.16571,-1.01016 -1.24946,-2.59878 -1.22473,-2.13719 -1.72379,-3.07569 0.40025,-2.22148 0.84187,-4.62537 0.89455,-5.03568 0.13431,-1.04801 0.17831,-2.08297 0.21099,-3.1159 0.0975,0.0571 0.21074,0.097 0.30659,0.15593 0.57669,-1.62447 0.51447,-3.10453 0.39199,-4.80452 -0.0471,-0.65488 -0.0911,-1.31021 -0.14075,-1.96501 0.6508,-0.71176 0.49013,-1.73627 0.47744,-2.70379 0.15722,-0.46268 0.3218,-0.92558 0.53774,-1.38707 0.4058,-2.01638 0.95828,-4.00595 1.22123,-6.04585 0.14461,-1.12268 0,-2.26533 0,-3.39735 v -11.12676 c -3e-5,-7.00279 -8e-5,-14.00434 0,-21.00716 0,-5.53302 -7e-4,-11.06665 0,-16.59967 0,-6.06656 -1.6e-4,-12.13129 -0.005,-18.19784 0,-7.18281 0.0643,-14.36798 -0.0206,-21.54994 -0.15259,-1.67433 -10e-4,-3.54486 0.0353,-5.1613 0.21305,-9.77062 0.0888,-2.72332 0.26132,-14.14216 -0.003,-0.54584 0.35332,-14.95025 -1.22123,-15.92624 -0.58754,-0.3642 -1.07152,-0.57779 -1.59814,-0.85435 0.0494,-0.4838 0.14564,-0.54512 0.21614,-1.29161 0.12737,-1.3521 0.0283,-2.73327 0.29149,-4.06572 0.21279,-1.0768 1.28839,-2.25321 2.00022,-3.07571 1.84583,-3.45918 1.82962,-6.81883 1.31672,-10.55884 -0.10061,-0.73422 -0.28601,-1.46079 -0.31663,-2.20124 0.22181,-1.14951 -0.0129,-2.35659 0.15079,-3.50287 0.0548,-0.38214 0.28459,-0.72125 0.39703,-1.09057 0.50089,-1.64554 0.51151,-1.93298 0.83928,-3.60338 0.16751,-2.98045 0.16545,0.0129 -0.70862,-4.23158 -0.0615,-0.29872 0.22104,0.57514 0.39704,0.8242 0.0378,0.0525 0.0528,-0.12197 0.0553,-0.18604 0.0533,-0.8842 0.0273,-1.77286 0.0453,-2.65858 0.0288,-2.33002 0.0579,-4.66032 0.0502,-6.99064 0,-0.31611 -0.11502,-1.24666 -0.0103,-0.94985 0.13663,0.37323 0.0798,0.88984 0.0401,1.31168 1.27028,-2.58123 0.81077,-1.19918 1.30666,-4.16625 1.18372,-7.08269 -4.91724,-0.43378 -8.5285,1.89467 0.0283,-0.043 0.0327,-0.0461 0.0654,-0.0955 0.0962,-0.14615 0.45686,-0.65293 0.47744,-0.88451 0.018,-0.21974 -0.0497,-0.43938 -0.0754,-0.65836 0.0103,0.0154 0.018,0.0656 0.0257,0.0502 0.0468,-0.10627 0.0368,-0.80421 0.0352,-0.94985 -0.0103,-0.36057 -0.008,-0.71988 -0.005,-1.0805 2.8e-4,-0.53094 -8e-5,-1.06221 0,-1.59313 -0.003,-0.0834 0.0206,-0.67017 -0.0103,-1.09057 0.002,-0.0129 -3.1e-4,-0.0283 -0.005,-0.0401 -0.018,-0.21974 -0.0509,-0.38849 -0.11553,-0.39201 -0.12403,-0.008 -0.19659,0.0257 -0.30152,0.0353 v -0.005 c 0.0301,-0.14589 0.0378,-0.21177 0.0401,-0.28646 0.0232,0.0103 0.036,-0.0818 0.0502,-0.12068 0.0301,-0.089 0.06,-0.17883 0.0754,-0.27139 0.0996,-0.59861 -0.15902,-0.58634 -0.67344,-0.9599 0.26004,-0.0947 -0.21923,-0.13458 -0.1055,-0.28143 0.28093,-0.18552 0.63098,-0.43681 0.81416,-0.69353 0.0821,0.0103 -0.0646,-0.0844 0.0103,-0.0854 0.0402,-0.0129 0.0803,-0.0232 0.12068,-0.0353 0.0571,0.22154 0.17626,0.29766 0.44227,0.0103 0.0618,-0.0672 -0.0803,-0.11425 -0.0301,-0.16597 0.10421,0.0888 0.12145,0.0661 -0.0257,-0.15078 0.24547,-0.27535 0.51784,-0.37027 -0.18604,-1.08553 -0.0872,-0.0888 -0.25037,0.002 -0.37189,0.0301 -0.0376,0.008 -0.0733,0.0257 -0.11065,0.0353 -0.0414,-0.0533 -0.0852,-0.10575 -0.13071,-0.15567 -0.0154,-0.018 -0.10087,0.0458 -0.21615,0.14564 -0.25113,-0.25397 -0.20559,-0.17909 -0.0301,0.0301 -0.0558,0.0491 -0.12557,0.10704 -0.19093,0.16597 -0.0129,0.005 -0.0265,0.0154 -0.0401,0.0206 -0.003,0.002 -0.008,0.003 -0.0103,0.005 -0.005,0.003 -0.0129,-0.003 -0.0206,0 2.1e-4,0.003 -2e-4,0.008 0,0.0103 -0.23621,0.10267 -0.46434,0.21846 -0.69855,0.32669 -0.0479,0.0231 -0.018,0.0566 -0.0602,0.0803 -0.27082,-0.34439 -0.34207,-0.0695 -0.25628,0.3166 v 0.005 c -0.0993,0.13818 -0.32885,0.26673 -0.31158,0.39701 -0.17214,0.0561 -0.38597,0.0844 -0.42218,0.22103 -0.0412,0.0129 -0.0355,0.0103 -0.0854,0.0257 -1.1231,0.35092 -0.95044,1.39209 -0.0301,1.37701 0.13149,-0.002 0.27679,-0.0304 0.43723,-0.0803 0.0466,-0.0154 0.0314,-0.008 0.0705,-0.0206 0.0548,0.0823 0.0932,0.18218 0.17086,0.24111 l 0.005,0.005 c -0.0782,0.12789 -0.14589,0.26591 -0.20611,0.41211 -0.18294,0.0872 -0.11759,0.0443 -0.27138,0.41713 -0.0847,0.20611 -0.11991,0.38672 -0.11554,0.56789 -0.0311,0.11656 -0.054,0.25165 -0.0553,0.40205 -10e-4,0.20148 -0.005,0.25577 -0.005,0.31161 -0.0232,0.14049 -0.0396,0.27625 -0.0401,0.30152 0,0.0795 -0.0641,0.23106 0.0206,0.23621 0.14795,0.0103 0.29483,0.005 0.44224,-0.0103 -0.0288,0.0808 -0.0579,0.15876 -0.0955,0.23621 -0.18243,0.40555 -0.39137,0.82155 -0.46234,1.26647 -0.0368,0.23132 0.003,0.46916 0.005,0.70359 2e-4,0.0232 -2.6e-4,0.0473 0,0.0702 -0.0636,0.11399 -0.16185,0.21048 -0.211,0.3317 -1.54241,3.78329 -0.91372,7.1141 -1.05038,11.10163 -0.0314,1.73791 -0.21923,3.67061 0.15594,5.38748 0.005,0.0268 0.0154,0.0854 0.0206,0.11553 -0.6035,3.01208 -1.49619,5.97236 -1.35189,9.0914 0.0257,0.77464 0.49602,5.7497 0.76892,6.20162 0.0929,0.15387 0.35466,-0.0497 0.53272,-0.0754 -2.11758,2.82169 -3.52526,5.4318 -4.27682,8.99591 -0.24754,1.17268 -0.13766,2.39478 -0.24625,3.5883 -0.3459,3.79732 -0.71041,2.28633 -0.26133,3.87979 -1.94965,4.23207 -3.06693,5.46624 -2.77416,10.39805 0.13432,2.26055 -0.22721,1.55808 0.26133,2.41231 v 0.005 c -0.089,0.12506 -0.20019,0.23776 -0.26635,0.37692 -0.54162,1.13796 -0.94704,2.3444 -1.22625,3.57324 -0.13895,0.61128 -0.0103,1.25775 -0.0154,1.88461 -0.0206,3.47192 -0.0103,2.9672 -0.0103,6.95547 0.0129,1.42209 -0.0888,2.84714 -0.0453,4.27682 -0.2578,0.78321 -0.5475,1.55584 -0.93476,2.2917 -0.67828,1.70807 -1.5017,3.36753 -2.03537,5.12616 -0.52407,1.72657 -2.68951,12.26666 -2.9601,13.62952 -0.36775,1.85136 -0.56102,3.74274 -1.04031,5.5684 -0.423,1.61118 -1.10843,3.13669 -1.65846,4.70902 -0.67882,1.9404 -1.34999,3.88818 -2.02533,5.82975 -0.58863,2.26791 -1.35805,4.49294 -1.76903,6.79967 -0.69214,3.88483 -0.44623,5.9987 -0.36186,9.68944 0.0206,0.93842 0.0154,1.88121 0.0453,2.81938 0.0154,0.46074 -0.35738,1.25043 0.0854,1.37703 1.95012,0.5569 3.96303,0.82062 5.98555,1.04533 -2.16809,0.8918 -4.26382,2.03918 -6.43786,2.90985 0.36155,-0.0273 0.73432,-0.008 1.10063,-0.0154 -0.31683,0.089 -0.63921,0.15825 -0.95488,0.25139 -0.14075,0.0417 0.21177,0.22026 0.25139,0.36184 0.34189,1.22087 0.67918,2.44776 0.88451,3.69886 1.21123,7.3769 1.43051,14.89506 2.75405,22.25855 0.0713,1.56094 0.0597,1.38959 0.11064,2.40729 -1.88564,3.48455 -1.09661,5.12922 -0.176,8.74461 0.12248,0.33155 0.24831,0.66191 0.36687,0.99506 -0.0365,1.31854 -0.0404,1.85615 -0.1356,5.27694 -0.0502,1.79841 -0.23158,4.07537 -0.19092,6.34234 -5.98144,0.80554 -11.83723,2.19156 -17.51939,4.29692 -1.76264,0.6342 -3.4904,1.39134 -5.292,1.90473 -1.63162,0.46481 -5.1904,1.04844 -8.11638,1.51271 0.57337,-0.68507 1.40958,-1.25903 1.42224,-2.18113 0.0597,-4.35546 -2.71797,-9.95383 -6.92534,-11.08153 -7.42411,-1.9899 -20.30168,4.59571 -29.44016,9.6442 -0.13277,-0.0103 -0.26264,-0.0497 -0.39703,-0.0502 -6.34603,-0.0283 -21.37185,4.65635 -25.38953,6.18657 -1.21768,0.46378 -2.72468,0.92084 -4.12603,1.36697 -1.67871,8e-5 -3.35706,-3.1e-4 -5.03569,0 -5.17201,0.003 -10.34728,2e-5 -15.51916,0 -7.52534,0.005 -15.05004,0.0502 -22.57517,-0.0257 -2.85867,-0.0345 -5.75447,-0.10499 -8.59386,0.26634 -11.9663,-1.37479 -24.0525,-1.69239 -35.84282,1.04032 -1.23793,-0.83714 -1.76455,-0.56069 -5.1513,-4.95528 -0.47065,-0.61088 2.48749,0.34606 2.28164,-0.39703 -0.21511,-0.77644 -1.61288,-0.0497 -2.41732,-0.0955 -4.07781,-0.2321 -9.50433,-0.63853 -13.44358,-0.91969 -5.00285,-0.24085 -6.90926,-0.70602 -11.57907,0.28646 -4.00296,0.85071 -7.19852,2.47234 -11.15187,3.56821 -0.39657,0.10987 -1.9835,0.40455 -3.06565,0.63824 0.10833,-0.24599 0.25499,-0.48352 0.35681,-0.72871 1.32215,-3.18098 -5.02441,-6.80059 -5.78953,-7.36256 -0.54538,-0.40054 -1.58837,0.5703 -2.03035,-0.0754 -11.12244,0.0103 -22.25152,0.82448 -33.37023,0.0854 -2.13904,-0.17806 -4.27999,-0.34001 -6.41774,-0.53271 -3.74681,-0.33749 -7.10167,-0.94187 -10.86039,-0.49252 -7.03732,0.84123 -13.32211,3.09323 -18.90144,7.5284 -2.56155,2.03624 -2.87979,4.0098 -2.98521,5.8247 -0.14616,-0.003 -0.29337,-10e-4 -0.43726,0.0154 l -0.0154,-0.0154 c -0.20868,-0.18063 -0.94504,-0.17857 -1.08553,-0.1657 -0.15722,0.0129 -0.30949,0.044 -0.46236,0.0803 0.0129,-3.91751 -2.6213,-8.24463 -8.03601,-5.63373 -0.41105,0.19838 -0.83302,0.37212 -1.26142,0.52265 -2.3673,-2.44722 -5.70189,-1.74378 -7.41282,1.75899 -0.52005,0.15361 -1.03349,0.32542 -1.53281,0.53773 -0.95074,0.40424 -1.74465,1.10207 -2.61836,1.65344 -1.22452,0.77276 -0.76887,1.12067 -0.88451,1.61322 0.0129,-0.0317 0.0232,-0.0633 0.0353,-0.0955 0.008,-9.5e-4 0.0103,-0.018 0.0103,-0.0257 v -0.005 c 0.018,-0.0281 0.0404,-0.053 0.0602,-0.0803 -0.0705,-0.24265 -0.0257,-0.27594 -0.44227,-0.20611 -0.0404,0.008 -0.0484,0.0592 -0.0654,0.10061 -0.0759,0.0538 -0.12994,0.13406 -0.19607,0.20096 l -0.005,0.005 c -0.034,-0.0656 -0.0919,-0.1212 -0.19607,-0.17086 -0.0731,-0.035 -0.20559,-0.005 -0.3166,0.0257 0.0561,-0.11476 0.11193,-0.22875 0.16082,-0.32668 0.0692,-0.13869 0.16185,-0.26696 0.21614,-0.41209 -0.0154,0.0206 -0.0646,0.0968 -0.10061,0.10061 -0.0435,0.003 -0.0872,0.008 -0.13071,0.005 -0.0129,-0.15104 -0.0232,-0.29882 -0.0803,-0.43723 -0.0206,-0.0497 -0.0916,0.0602 -0.12068,0.1055 -0.0576,0.0898 -0.10344,0.18552 -0.15079,0.28142 -0.008,-6.9e-4 -0.0129,6.2e-4 -0.0206,0 -0.22721,0.31514 -0.45334,0.63148 -0.6835,0.94483 -0.0507,-0.0376 -0.10138,-0.0597 -0.14075,-0.0352 -0.0638,-0.0103 -0.12686,-0.0206 -0.19093,-0.0301 -0.008,10e-4 -0.0154,0.003 -0.0257,0.005 10e-4,-0.1284 -0.0533,-0.2726 -0.14564,-0.36183 0.0615,-0.0638 0.10499,-0.12866 0.11554,-0.21615 v -0.005 c 0.0103,-0.10679 -0.018,-0.24471 -0.1055,-0.45231 -0.0103,-0.0231 -0.027,-0.0309 -0.0502,-0.0257 0.0154,-0.035 0.026,-0.0702 0.0352,-0.1055 0.0926,-0.054 0.17909,-0.10832 0.12557,-0.16596 -0.0461,-0.0497 -0.0921,-0.0854 -0.1356,-0.11065 -0.0324,-0.0826 -0.096,-0.16107 -0.20096,-0.23621 -0.0949,-0.0677 -0.16597,0.16211 -0.2514,0.2411 -0.31394,0.29084 -0.63381,0.58104 -0.95488,0.86439 -0.0103,-0.0129 -0.0232,-0.0232 -0.0353,-0.0353 -0.0298,-0.0296 -0.0669,0.0546 -0.0955,0.0854 -0.008,0.008 -0.008,0.0129 -0.0154,0.0206 h -0.005 c -0.0618,-0.0821 -0.15928,-0.14049 -0.23107,-0.21614 -0.12917,0.018 -0.13458,0.0154 -0.28145,0.0654 -0.0435,0.0154 -0.0823,0.0399 -0.12557,0.0553 -0.0571,0.0206 -0.11862,0.0296 -0.176,0.0502 -0.0885,0.0319 -0.11939,0.0468 -0.12068,0.0502 0.0154,-0.005 0.0458,-0.0103 -0.17085,0.0502 -0.13278,0.0777 -0.10319,0.0625 -0.10061,0.0602 0.005,-2.3e-4 -0.008,0.0129 -0.0602,0.0502 -0.0569,0.0399 -0.12042,0.0741 -0.176,0.11553 -0.16262,0.12068 -0.32236,0.25628 -0.4523,0.41211 -0.15104,0.0883 -0.23081,0.12557 -0.36688,0.2411 -0.10936,0.0934 -0.10781,0.12403 -0.19092,0.23622 -0.0394,0.0533 -0.0798,0.10344 -0.12068,0.15567 -0.0404,0.0543 -0.0805,0.11167 -0.12068,0.16597 -0.19582,0.35192 -0.2664,0.56665 0.2764,0.53271 0.0335,-0.002 0.0607,-0.0401 0.0803,-0.0754 v -0.005 c 0.0808,-0.0129 0.0985,-0.0484 0.18089,-0.0906 0.0129,-0.008 0.027,-0.0103 0.0401,-0.0154 0.0129,0.0847 0.0937,0.16313 0.30154,0.20096 0.0327,0.005 0.0654,-4.4e-4 0.0955,-0.0103 0.0301,0.0129 0.0605,0.0232 0.1055,0.0453 0.0664,-0.003 0.0412,1.1e-4 0.1055,-0.005 0.0466,-0.003 0.0659,-0.003 0.0654,-0.005 0.0154,0.008 0.0335,0.0129 0.0502,0.0206 0.0378,0.008 0.0772,0.0206 0.11554,0.0206 0.0564,0 0.11167,-0.008 0.16596,-0.0206 0.0353,-0.0103 0.072,-0.0327 0.1055,-0.0553 -0.0273,0.14925 0.0306,0.30592 0.25628,0.50256 0.062,0.0543 0.15799,-0.0674 0.21615,-0.12557 0.1199,-0.12016 0.2236,-0.25165 0.32666,-0.38697 0.0154,-0.0154 0.0342,-0.0365 0.0502,-0.0602 0.008,-0.008 0.008,-0.0206 0.0154,-0.0301 0.0103,-0.0129 0.0206,-0.0231 0.0301,-0.0353 0.0257,-0.0337 0.0463,-0.0674 0.0702,-0.10061 -0.0103,0.0973 -0.0154,0.19813 -0.0353,0.29149 0.0929,-0.0154 0.19993,-0.003 0.28145,-0.0502 0.0329,-0.018 0.0605,-0.0422 0.0903,-0.0654 0.0522,0.0293 0.1163,0.0481 0.18089,0.0602 -0.0257,0.0674 -0.0553,0.14307 -0.1055,0.22618 0.0337,0.16597 -0.0154,0.37352 0.10061,0.49754 0.23261,0.24985 0.77394,-0.41208 0.77394,-0.41211 0.0955,-0.10344 0.18964,-0.20997 0.28145,-0.3166 0.0664,0.0232 0.14127,0.035 0.20611,0.0602 0.0206,-0.0103 0.0404,-0.0154 0.0602,-0.0257 0.0309,0.005 0.0517,0.005 0.0803,0.0103 -0.005,0.0612 -0.0103,0.12479 -0.0154,0.18603 -0.008,0.10138 -0.0533,0.20225 -0.0301,0.30155 0.0471,0.21202 0.1091,0.32658 0.25139,0.33167 0.0473,0.002 0.10344,-0.008 0.17086,-0.0301 0.14692,-0.0484 0.25602,-0.25474 0.3317,-0.36186 0.0831,-0.12094 0.17111,-0.23904 0.25139,-0.36183 0.005,-0.008 0.0103,-0.0103 0.0154,-0.0206 0.18913,0.0489 0.31426,0.072 0.59303,0.0705 0.24856,-0.002 0.38839,-0.0862 0.25628,-0.42217 0.84669,0.53498 2.46354,0.87018 4.30194,1.13079 0.0257,0.40403 0.0479,0.80883 0.0854,1.21117 0.0401,0.43138 -0.2667,1.38015 0.15568,1.29158 0.45796,-0.0957 0.14744,-1.83461 0.26634,-1.38205 0.40519,1.54256 0.1778,3.21139 0.61814,4.7442 0.67288,2.34139 4.1926,3.28488 5.71919,4.07079 2.13122,0.0129 4.2614,-0.0129 6.39262,-0.0301 1.84601,0 3.68449,0.16211 5.52317,0.12068 0.61289,-0.0129 1.22653,-0.053 1.83937,-0.12557 3.87634,-0.3986 7.22307,-0.5418 10.91067,-2.04543 1.57082,-0.64047 3.21721,-1.20242 4.5884,-2.20123 0.40426,-0.29434 -1.02979,0.1266 -1.49764,-0.0502 -0.38488,-0.14563 0.82014,-0.0322 1.2313,-0.0502 1.6653,-0.0697 3.48867,-0.30551 5.14625,-0.005 0.58281,0.1055 1.13904,0.35201 1.7288,0.40707 0.99532,0.0929 2.00071,0.0257 3.00032,0.0353 0.95569,-0.33404 1.93579,-0.60913 2.86963,-1.00009 1.68022,-0.70342 -1.00681,-0.2568 1.54789,-1.10061 0.28096,-0.0929 0.58068,0.0129 0.86441,-0.0502 -0.48274,0.97655 -0.98684,1.92928 -1.56798,2.79927 2.48196,-0.002 4.98448,0.18167 7.47815,0.21615 1.92534,0.94889 4.15863,0.76813 6.43281,0.42719 0.35818,0.0129 0.71991,0.0481 1.06041,0.0602 2.56834,0.0929 5.19926,-0.20482 7.81989,-0.62316 6.10669,-0.018 12.21216,-0.071 18.31844,-0.0103 16.13132,0.16854 32.26034,0.6422 48.38684,1.11066 0.45282,2.25787 1.04552,6.22372 2.32686,6.15641 0.41262,-0.0206 0.81285,-0.0978 1.20615,-0.20611 1.7673,0.84172 3.9473,-0.80183 5.59354,-2.94 0.73151,-0.37624 1.50401,-0.55955 2.28666,-0.69855 0.25268,0.0103 0.50894,0.034 0.75385,0.0401 0.89274,0.34354 -0.1248,2.98014 0.96996,3.4878 1.52553,0.70753 3.2846,-0.7624 4.95528,-0.95487 1.82437,-0.21022 3.6684,-0.16828 5.50306,-0.25139 6.72338,-0.0263 13.40295,0.87993 20.12265,0.92473 0.53758,0.003 1.07477,-0.0232 1.61322,-0.0206 5.69204,0.78995 11.37888,1.62347 17.0922,2.18616 3.38813,0.33371 6.79578,0.46795 10.18698,0.76893 0.74927,0.17497 1.49642,0.26968 2.24142,0.31158 2.23502,0.12582 4.45617,-0.21332 6.69919,-0.22104 1.92444,-0.78395 4.12652,-0.46656 6.08101,-1.12574 1.42948,-0.48213 2.7937,-1.15116 4.15118,-1.80924 0.84931,-0.4117 1.65367,-0.91112 2.48265,-1.36193 0.4329,-0.0347 0.87569,-0.0962 1.26647,0.005 0.10524,0.0273 0.087,0.19658 0.13071,0.2965 1.9808,0.43576 2.68563,1.33617 4.77938,1.87457 1.29912,0.33407 2.41668,0.40807 3.55817,0.39703 1.141,-0.0103 2.30359,-0.10755 3.69887,-0.12556 6.62603,-0.0857 13.25494,-0.13406 19.88141,-0.20097 4.24504,-0.29915 4.42591,-0.41499 7.85004,-0.65331 3.59958,2.72643 7.22128,5.42433 10.84532,8.09629 3.95845,2.64587 16.30546,11.26396 21.35394,13.35815 1.65161,0.68504 3.48288,1.44355 5.26688,1.51272 z M 416.79265,917.02613 c -0.003,4.4e-4 -0.008,-4.4e-4 -0.0103,0 0.005,-0.008 0.0103,-0.018 0.0154,-0.0257 -0.003,0.008 -0.002,0.018 -0.005,0.0257 z m 317.55493,28.65619 c -0.59508,-0.0607 -1.26417,-0.28981 -1.72379,-0.48748 -5.19817,-2.23561 -16.15156,-9.90458 -20.31864,-12.68472 -0.71612,-0.52767 -0.32413,-0.24599 -0.94482,-0.70359 8.00826,-0.55937 22.02475,-1.8128 28.3295,-2.35199 -1.34165,2.76894 -2.924,5.41403 -4.85477,7.96562 -0.81491,1.91845 -1.89529,3.74449 -2.44748,5.75436 -0.33548,1.22105 4.05314,2.02027 3.23653,1.99016 -0.16185,0.47343 -0.68144,0.57847 -1.27653,0.51764 z M 414.67183,919.03137 c -0.0553,0.002 -0.12582,-0.1127 0.0654,-0.0654 -0.0129,0.018 -0.0257,0.0332 -0.0401,0.0502 -0.008,0.008 -0.0154,0.0154 -0.0257,0.0154 z m -1.51773,-0.0854 c 0.0129,-0.018 0.0602,-0.0656 0.0955,-0.0803 -0.0309,0.0265 -0.0659,0.0522 -0.0955,0.0803 z m -1.41221,-0.26637 c -0.008,-2.3e-4 -0.018,-0.002 -0.0257,-0.005 l -0.005,-0.005 c 0.0154,0.002 0.0257,0.003 0.0401,0.005 -0.003,10e-4 -0.005,0.005 -0.0103,0.005 z m 27.84202,-0.13071 c -0.20405,-0.008 -0.41144,-0.0103 -0.60808,-0.005 0.018,-0.0538 -0.0103,-0.11013 -0.0352,-0.16597 0.0386,-0.0103 0.0769,-0.0206 0.11553,-0.0301 h 0.005 c 0.1302,-0.0103 0.264,-0.0257 0.39703,-0.0401 0.003,-1.1e-4 0.008,10e-5 0.0103,0 0.0653,-0.002 0.13071,-0.003 0.19607,-0.005 0.005,0.0129 0.0154,0.0206 0.0301,0.0257 0.0103,0.062 -0.12479,0.16031 -0.11064,0.22103 z m -28.44508,-0.0154 c -0.018,-0.002 -0.0368,-0.008 -0.0654,-0.0154 0.0257,-0.0206 0.0504,-0.0396 0.0754,-0.0602 0.0455,0.0525 0.0571,0.0849 -0.0103,0.0754 z m -0.16597,-0.0401 c 0.003,-0.002 0.002,-0.008 0.005,-0.0103 0.002,0.003 0.003,0.008 0.005,0.0103 10e-4,0.003 -0.005,-9.8e-4 -0.0103,0 z m 2.69877,-0.0401 c 5.4e-4,-0.005 -4.9e-4,-0.0103 0,-0.0154 0.008,-0.005 0.0232,-0.0129 0.0353,-0.0301 l 0.005,0.005 c -0.0129,0.0154 -0.0275,0.0262 -0.0401,0.0401 z m -2.37713,-1.03528 c 0.0741,-0.0672 0.14564,-0.13663 0.22618,-0.19607 0.0409,-0.0301 0.0893,-0.0515 0.13071,-0.0803 0.0651,-0.0458 0.0829,-0.063 0.0906,-0.0702 0.003,-0.002 0.018,-0.0103 0.0301,-0.0154 -0.0774,0.0767 -0.15747,0.15079 -0.25139,0.24111 -0.0154,0.0129 -0.027,0.0293 -0.0401,0.0453 l -0.005,0.005 c -0.008,0.003 -0.018,0.008 -0.0257,0.0103 -0.0512,0.0206 -0.10421,0.0396 -0.15593,0.0602 z m 3.05057,-0.0453 c -0.0154,-0.0257 -0.0353,-0.0461 -0.0553,-0.0654 0.0358,-0.0481 0.0656,-0.0965 0.0803,-0.15593 10e-4,-0.005 -5.4e-4,-0.0103 0,-0.0154 0.052,-0.0129 0.11682,-0.0232 0.20611,-0.0257 -0.0502,0.0525 -0.0844,0.15207 -0.0955,0.24625 -0.0481,10e-4 -0.0888,0.002 -0.1356,0.0154 z m 24.31905,-0.12068 c 0.003,-0.0425 -0.0332,-0.078 -0.0301,-0.12068 0.22901,-0.045 0.41383,-0.0787 0.62318,-0.0702 -0.0257,0.0378 -0.0401,0.0749 -0.0453,0.11553 -0.20097,0.0263 -0.37277,0.0512 -0.5478,0.0754 z m 24.65076,-1.91477 c 0.0368,-0.0335 0.20791,-0.17034 0.56287,-0.46236 0.0579,-0.0154 0.12042,-0.0257 0.18089,-0.0353 -0.45583,0.29918 -0.80529,0.5532 -0.74379,0.49754 z m 227.03315,-0.11553 c -0.255,-0.23107 -0.48342,-0.55855 -0.75887,-0.71363 0.18758,-0.28114 0.34765,-0.55472 0.53271,-0.84432 1.82872,-0.97488 3.7843,-1.98586 6.05591,-3.09077 1.63324,-0.79442 3.40972,-1.31141 5.17136,-1.84943 -1.25746,1.07516 -2.55488,2.10142 -3.82953,3.15609 -0.63636,0.10808 0.35687,-0.0602 -0.60306,0.10061 -1.94616,0.88068 -3.31213,1.33121 -4.96032,2.58319 -0.22361,0.16983 -0.25474,0.61423 -0.53271,0.65334 -0.35571,0.0499 -0.71644,0.0206 -1.07549,0.005 z m -225.78176,-0.68852 c -0.063,-0.0129 -0.12969,-0.0273 -0.17086,-0.0353 -0.50938,-0.0924 -1.02423,-0.15619 -1.53783,-0.22618 0.72346,-0.0484 1.46501,-0.018 2.19619,-0.0103 -0.16288,0.0888 -0.32692,0.17574 -0.48748,0.27139 z m 294.14048,-3.59836 c -0.27342,0.008 -0.54048,-10e-4 -0.80914,-0.005 2.8e-4,-0.018 0.0103,-0.0273 0.0103,-0.0453 -0.0443,-0.76517 -0.21203,-1.50479 -0.40205,-2.24142 0.42379,0.71687 0.7339,1.52005 1.20113,2.29168 z m 2.49272,-18.52448 c -0.44508,-1.09255 -1.05313,-2.83533 -1.58309,-4.31703 0.008,-0.9518 -0.0471,-3.68567 -0.10061,-4.86985 0.15361,-0.41844 0.39031,-0.7275 0.51262,-1.20111 0.23827,-0.9229 -1.8e-4,-1.9064 0,-2.85959 -0.0705,-0.94311 -0.33284,-1.89143 -0.211,-2.82944 0.13354,-1.03944 0.5217,-0.69618 0.93476,-0.74379 0.0944,0.9501 0.19042,1.88039 0.26133,3.14604 0.16262,7.96071 0.176,8.71492 0.41713,12.22235 -0.0849,0.48675 -0.16983,0.97302 -0.23107,1.45242 z m -3.6637,-29.42009 c -0.29835,-2.9602 -0.6169,-5.91619 -1.1006,-8.85014 -0.22258,-1.34945 -0.55809,-2.67662 -0.90464,-4.00042 0.71667,-0.74183 0.003,-2.55125 0.0553,-3.73404 0.4469,-10.16663 -0.57782,3.81119 -0.14564,-7.59373 0.18012,-4.76607 0.48375,-4.68631 1.85947,-9.41806 0.59918,-1.69671 1.20062,-3.394 1.79918,-5.09095 0.55199,-1.56482 1.23024,-3.08953 1.65344,-4.69395 0.0934,-0.35419 0.16365,-0.71458 0.25139,-1.07047 0.176,1.53785 0.22927,3.10118 0.88953,4.53814 -2.3e-4,4.97887 0.0103,9.95738 0.005,14.9362 -0.002,2.22864 -0.0311,6.35627 -0.0154,6.96052 -1.09798,0.28793 0.0327,2.37741 0.0353,3.55312 -0.003,3.79943 -0.0206,7.59875 -0.0301,11.39815 -1.99222,0.98062 -6.07976,3.54299 -3.62351,2.156 -0.19607,0.20508 -0.49586,0.6625 -0.7287,0.90963 z m 2.54799,-1.43733 c -0.80238,0.0324 0.69045,-0.49308 1.80422,-1.1157 -5.4e-4,0.2043 -0.005,0.40874 -0.005,0.61315 -0.59874,0.27584 -1.20013,0.47834 -1.79918,0.50255 z m 13.79036,-98.58791 c -0.0103,-0.19967 -0.0427,-0.64987 -0.0401,-0.7036 0.0129,-0.23106 0.417,0.60176 0.19607,0.6684 -0.0509,0.0154 -0.10473,0.0206 -0.15593,0.0353 z m -3.31681,-58.81973 c -0.005,-0.008 -0.0103,-0.0129 -0.0154,-0.0206 0.0154,-0.005 0.0301,-0.005 0.0453,-0.0103 0.0154,-0.003 -0.0206,0.0404 -0.0301,0.0301 z" /></clipPath><clipPath
       clipPathUnits="userSpaceOnUse"
       id="clipPath5879"><path
         id="path5881"
         style="fill:#ff0000;fill-opacity:1;fill-rule:nonzero;stroke:none;stroke-width:2.57313"
         d="m 407.36958,918.96604 v -0.45231 c 0.008,1.1e-4 0.0129,-2.6e-4 0.0206,0 0.0929,0.003 0.18372,0.0257 0.2764,0.0301 -0.1603,0.0363 -0.21048,0.19272 -0.0352,0.21614 0.003,6.4e-4 0.0103,1.3e-4 0.0154,0 0,0 0.005,0 0.005,0 0.002,0.008 6.6e-4,0.018 0.005,0.0257 -0.005,0.008 -0.0154,0.0154 -0.0206,0.0257 0.0103,0.0232 0.0311,0.07 0.0602,0.15593 z m 0.5478,0 c 0.008,-0.002 0.0232,-0.005 0.0257,-0.005 0.008,-0.002 0.19787,-0.0599 0.22103,-0.0702 0.0342,-0.018 0.0633,-0.0448 0.0955,-0.0653 -0.008,-0.0206 -0.0129,-0.0438 -0.0206,-0.0654 h 0.0955 0.17085 c 0.018,0 0.0322,0.002 0.0502,0 0.0373,-0.005 0.0921,-0.0206 0.13072,-0.0301 0.0795,-0.0103 0.16107,0.0103 0.2411,0.005 0.0363,-0.003 0.0692,-0.005 0.1055,-0.0103 0.0857,-0.0154 0.0517,-0.0103 0.11064,-0.0257 0.22901,-0.0638 0.15284,-0.30716 -0.0705,-0.22618 -0.0301,0.0103 -0.005,0.002 -0.0702,0.0154 -0.0232,0.003 -0.0471,0.008 -0.0705,0.0103 0,0 -0.005,0 -0.005,0 0.0129,-0.0383 0.008,-0.0847 -0.0154,-0.12557 -0.0507,-0.0908 -0.1513,-0.0803 -0.23107,-0.0854 -0.16236,0.005 -0.34199,0.0232 -0.49252,0.0154 -0.0862,-0.002 -0.17008,-10e-5 -0.25628,0 -0.0831,-2.8e-4 -0.16803,-5e-5 -0.2514,0 -0.0345,-0.003 -0.0661,-0.005 -0.1006,-0.0103 -0.0311,-0.003 -0.13226,-0.018 -0.17086,-0.0206 -0.0129,-4.3e-4 -0.027,1.6e-4 -0.0401,0 v -217.5096 h 362.27807 c -0.002,0.0129 -0.003,0.0257 0,0.0401 0,0 0,0.005 0,0.005 -0.0306,0.005 -0.0674,0.0154 -0.11553,0.0301 -0.0386,0.0103 -0.018,0.0772 -0.0257,0.11553 -0.018,0.0852 -0.0327,0.13432 -0.0453,0.18604 -0.0399,-0.0129 -0.0793,-0.0257 -0.12068,-0.0257 -0.018,0 -0.0129,0.0373 -0.0154,0.0553 -0.003,0.0232 -0.002,0.0471 0,0.0702 -0.005,0.0306 -0.008,0.045 -0.0154,0.13072 0,0.0103 -0.008,0.0998 -0.005,0.12557 8e-4,0.0129 -9.5e-4,0.018 0,0.0257 -0.0489,0.0576 -0.14564,0.12582 -0.16082,0.18604 -0.0103,0.0399 -0.005,0.0844 -0.005,0.12556 -5.9e-4,0.0648 0.0129,0.0304 -0.005,0.0602 -0.0376,0.0932 -0.0206,0.17652 0,0.25629 0.005,0.0154 0.008,0.0324 0.0154,0.0453 0.0283,0.0458 0.0726,0.0849 0.10061,0.13071 0.0103,0.0154 0.0154,0.0322 0.0257,0.0502 0.10832,0.19427 0.0154,0.0206 0.0906,0.17085 0.0129,0.0154 0.0283,0.0257 0.0401,0.0401 10e-5,0.005 -2.6e-4,0.0103 0,0.0154 0.008,0.003 0.0129,0.0103 0.0206,0.0154 0,0 0.005,0.005 0.005,0.005 0.0103,0.0103 0.0275,0.043 0.0353,0.0301 0.003,-0.005 -0.005,-0.0103 -0.0103,-0.0154 0.0404,0.0273 0.0793,0.0525 0.12557,0.0654 0.0206,0.005 0.0399,-0.018 0.0502,-0.0353 0.0283,-0.0561 0.0383,-0.0978 0.0301,-0.13072 0,0 0,-0.005 0,-0.005 0.018,-0.003 0.0458,-0.008 0.0803,-0.0154 0.1248,0.0154 0.1266,0.0206 0.12068,-0.0257 -8.7e-4,-0.0232 -8e-5,-0.0427 0,-0.0654 0,0 0,-0.005 0,-0.005 0.0154,-0.0129 0.0329,-0.0262 0.0502,-0.0453 0.002,-0.002 0.003,-0.008 0.005,-0.0103 0,0 0.005,0 0.005,0 0,0 0,-0.005 0,-0.005 0,0 0.005,0 0.005,0 0.0515,0.0317 0.11141,0.0571 0.16082,0.0906 0.002,-0.0103 0.003,-0.0206 0.005,-0.0301 0.018,0.10833 0.0664,0.19787 0.28143,0.0154 0.0803,-0.0679 0.0741,-0.19788 0.11064,-0.29653 0.0257,-0.069 0.0206,-0.0543 0.0352,-0.0955 0,0 0.005,0.005 0.005,0.005 -0.005,0.0306 -0.0103,0.06 -0.0154,0.0906 l 0.005,-0.005 c -0.0345,0.23544 0.20147,0.2754 0.23621,0.0401 0.005,-0.0373 0.0103,-0.0782 0.0154,-0.11553 0,0 0.005,0.005 0.005,0.005 0.0314,0.0404 0.0206,-0.0561 0.0103,-0.1356 2.8e-4,-0.003 -2.9e-4,-0.008 0,-0.0103 0.008,-0.0854 0.0129,-0.1706 0.0103,-0.25629 -3.1e-4,-0.008 -0.005,-0.0154 -0.005,-0.0257 0.001,-0.0129 3.6e-4,-0.0232 0,-0.0353 -3.3e-4,-0.005 3.6e-4,-0.0103 0,-0.0154 -3.6e-4,-0.005 -0.005,-0.0103 -0.005,-0.0154 0,0 0,-0.005 0,-0.005 0,0 0,-0.005 0,-0.005 0,0 0,-0.005 0,-0.005 0.008,-0.20765 0.0154,-0.43406 0.0154,-0.44224 -0.005,-0.018 -0.0129,-0.0376 -0.0206,-0.0553 3.3e-4,-0.0417 -2.6e-4,-0.0839 0,-0.12557 0,0 -0.005,0.005 -0.005,0.005 6.7e-4,-0.003 -6.7e-4,-0.008 0,-0.0103 0,0 0.005,0 0.005,0 3.9e-4,-0.0551 1.8e-4,-0.11064 0,-0.16596 h 0.0705 v 218.2031 z M 769.36119,702.06457 c -9.3e-4,-0.003 -0.005,-0.008 -0.005,-0.0103 -10e-4,-0.003 -0.005,-0.005 -0.005,-0.0103 -9.5e-4,-0.008 0.002,-0.018 0,-0.0257 6.4e-4,-0.0103 0.005,-0.0129 0.005,-0.0206 8e-5,0.0206 0.005,0.0435 0.005,0.0654 z m 0.59805,-1.16596 c -0.0103,-9e-4 -0.0154,-0.003 -0.0257,-0.005 -0.008,-0.018 -0.0154,-0.0337 -0.0257,-0.0453 0.003,-0.0257 0.0103,-0.0553 0.0103,-0.0854 h 0.19607 c 0.0206,0.0353 0.0602,0.0558 0.0955,0.0803 -0.0311,0.008 -0.063,0.0103 -0.0955,0.0154 -0.0461,-0.0103 -0.096,-0.0129 -0.14075,-0.0257 0.005,0.0232 0.0103,0.0425 0.0154,0.0654 -0.0103,-1.1e-4 -0.0206,9.2e-4 -0.0301,0 z m 0.27643,-0.0301 c -0.008,-0.008 -0.0103,-0.018 -0.0206,-0.0257 -0.005,-0.0154 -0.0103,-0.0329 -0.0154,-0.0502 0,0 0,-0.005 0,-0.005 -0.0154,-0.005 -0.0368,-0.0154 -0.0553,-0.0257 h 0.14075 c -0.0232,0.0474 -0.0262,0.0291 -0.0453,0.0955 -10e-4,0.005 -0.005,0.005 -0.005,0.0103 z" /></clipPath></defs><sodipodi:namedview
     id="namedview4"
     pagecolor="#ffffff"
     bordercolor="#666666"
     borderopacity="1.0"
     inkscape:pageshadow="2"
     inkscape:pageopacity="0.0"
     inkscape:pagecheckerboard="0"
     showgrid="false"
     inkscape:zoom="1.6742857"
     inkscape:cx="476.32253"
     inkscape:cy="281.91126"
     inkscape:window-width="2560"
     inkscape:window-height="1377"
     inkscape:window-x="-2568"
     inkscape:window-y="10"
     inkscape:window-maximized="1"
     inkscape:current-layer="g42" /><g
     id="g8"
     inkscape:groupmode="layer"
     inkscape:label="Draft_Slope_plot"
     transform="matrix(1.3333333,0,0,-1.3333333,0,432)"><g
       id="g10"><path
         d="M 0,0 H 525 V 324 H 0 Z"
         style="fill:#ffffff;fill-opacity:1;fill-rule:nonzero;stroke:none"
         id="path12" /></g><g
       id="g14" /><g
       id="g16" /><g
       id="g18" /><g
       id="g20" /><g
       id="g22" /><g
       id="g24" /><g
       id="g26" /><g
       id="g28" /><g
       id="g30" /><g
       id="g32" /><g
       id="g34"><path
         d="M 0,0 H 525 V 324 H 0 Z"
         style="fill:#ffffff;fill-opacity:1;fill-rule:nonzero;stroke:#ffffff;stroke-width:1.07;stroke-linecap:round;stroke-linejoin:round;stroke-miterlimit:10;stroke-dasharray:none;stroke-opacity:1"
         id="path36" /></g><g
       id="g38" /><g
       id="g40"><g
         id="g42"
         clip-path="url(#clipPath46)"><path
           d="m 8.22,19.4 h 511.3 V 267.92 H 8.22 Z"
           style="fill:#ffffff;fill-opacity:1;fill-rule:nonzero;stroke:none"
           id="path48" /><path
           d="m 399.6086,99.80992 -8.35753,-0.02"
           style="fill:none;stroke:#bebebe;stroke-width:0.180282;stroke-linecap:round;stroke-linejoin:round;stroke-miterlimit:10;stroke-dasharray:none;stroke-opacity:1"
           id="path172-3" /><path
           d="m 399.04866,77.188329 -8.35753,-0.02"
           style="fill:none;stroke:#bebebe;stroke-width:0.180282;stroke-linecap:round;stroke-linejoin:round;stroke-miterlimit:10;stroke-dasharray:none;stroke-opacity:1"
           id="path172-8" /><path
           d="m 399.16065,30.15335 -8.35753,-0.02"
           style="fill:none;stroke:#bebebe;stroke-width:0.180282;stroke-linecap:round;stroke-linejoin:round;stroke-miterlimit:10;stroke-dasharray:none;stroke-opacity:1"
           id="path172-2" /><path
           d="M 31.46,256.63 263.87,165.58 314.71,128.49 387.34,30.7"
           style="fill:none;stroke:#ffffff;stroke-width:4.27;stroke-linecap:butt;stroke-linejoin:round;stroke-miterlimit:10;stroke-dasharray:none;stroke-opacity:1"
           id="path50" /><path
           d="m 31.46,256.63 232.41,-40.47 50.84,-6.74 h 72.63"
           style="fill:none;stroke:#ffffff;stroke-width:4.27;stroke-linecap:butt;stroke-linejoin:round;stroke-miterlimit:10;stroke-dasharray:none;stroke-opacity:1"
           id="path52" /><path
           d="m 31.46,256.63 232.41,-37.1 h 50.84 l 72.63,-26.97"
           style="fill:none;stroke:#ffffff;stroke-width:4.27;stroke-linecap:butt;stroke-linejoin:round;stroke-miterlimit:10;stroke-dasharray:none;stroke-opacity:1"
           id="path54" /><path
           d="m 31.46,256.63 232.41,-97.79 50.84,-47.21 72.63,-33.72"
           style="fill:none;stroke:#ffffff;stroke-width:4.27;stroke-linecap:butt;stroke-linejoin:round;stroke-miterlimit:10;stroke-dasharray:none;stroke-opacity:1"
           id="path56" /><path
           d="m 31.46,256.63 232.41,-33.72 50.84,-26.98 72.63,-10.12"
           style="fill:none;stroke:#ffffff;stroke-width:4.27;stroke-linecap:butt;stroke-linejoin:round;stroke-miterlimit:10;stroke-dasharray:none;stroke-opacity:1"
           id="path58" /><path
           d="m 31.46,256.63 232.41,-124.77 50.84,-3.37 72.63,-16.86"
           style="fill:none;stroke:#ffffff;stroke-width:4.27;stroke-linecap:butt;stroke-linejoin:round;stroke-miterlimit:10;stroke-dasharray:none;stroke-opacity:1"
           id="path60" /><path
           d="m 31.46,256.63 232.41,-87.68 50.84,-13.49 72.63,-16.86"
           style="fill:none;stroke:#ffffff;stroke-width:4.27;stroke-linecap:butt;stroke-linejoin:round;stroke-miterlimit:10;stroke-dasharray:none;stroke-opacity:1"
           id="path62" /><path
           d="m 31.46,256.63 232.41,-33.72 h 50.84 l 72.63,-3.38"
           style="fill:none;stroke:#ffffff;stroke-width:4.27;stroke-linecap:butt;stroke-linejoin:round;stroke-miterlimit:10;stroke-dasharray:none;stroke-opacity:1"
           id="path64" /><path
           d="m 31.46,256.63 232.41,-74.19 50.84,-6.74 72.63,-13.49"
           style="fill:none;stroke:#ffffff;stroke-width:4.27;stroke-linecap:butt;stroke-linejoin:round;stroke-miterlimit:10;stroke-dasharray:none;stroke-opacity:1"
           id="path66" /><path
           d="m 31.46,256.63 232.41,-97.79 50.84,-20.24 72.63,-37.09"
           style="fill:none;stroke:#ffffff;stroke-width:4.27;stroke-linecap:butt;stroke-linejoin:round;stroke-miterlimit:10;stroke-dasharray:none;stroke-opacity:1"
           id="path68" /><path
           d="m 29.51,256.63 c 0,1.07 0.88,1.95 1.95,1.95 1.08,0 1.95,-0.88 1.95,-1.95 0,-1.08 -0.87,-1.96 -1.95,-1.96 -1.07,0 -1.95,0.88 -1.95,1.96"
           style="fill:#f8766d;fill-opacity:1;fill-rule:nonzero;stroke:#f8766d;stroke-width:0.71;stroke-linecap:round;stroke-linejoin:round;stroke-miterlimit:10;stroke-dasharray:none;stroke-opacity:1"
           id="path70" /><path
           d="m 29.51,256.63 c 0,1.07 0.88,1.95 1.95,1.95 1.08,0 1.95,-0.88 1.95,-1.95 0,-1.08 -0.87,-1.96 -1.95,-1.96 -1.07,0 -1.95,0.88 -1.95,1.96"
           style="fill:#d89000;fill-opacity:1;fill-rule:nonzero;stroke:#d89000;stroke-width:0.71;stroke-linecap:round;stroke-linejoin:round;stroke-miterlimit:10;stroke-dasharray:none;stroke-opacity:1"
           id="path72" /><path
           d="m 29.51,256.63 c 0,1.07 0.88,1.95 1.95,1.95 1.08,0 1.95,-0.88 1.95,-1.95 0,-1.08 -0.87,-1.96 -1.95,-1.96 -1.07,0 -1.95,0.88 -1.95,1.96"
           style="fill:#a3a500;fill-opacity:1;fill-rule:nonzero;stroke:#a3a500;stroke-width:0.71;stroke-linecap:round;stroke-linejoin:round;stroke-miterlimit:10;stroke-dasharray:none;stroke-opacity:1"
           id="path74" /><path
           d="m 29.51,256.63 c 0,1.07 0.88,1.95 1.95,1.95 1.08,0 1.95,-0.88 1.95,-1.95 0,-1.08 -0.87,-1.96 -1.95,-1.96 -1.07,0 -1.95,0.88 -1.95,1.96"
           style="fill:#39b600;fill-opacity:1;fill-rule:nonzero;stroke:#39b600;stroke-width:0.71;stroke-linecap:round;stroke-linejoin:round;stroke-miterlimit:10;stroke-dasharray:none;stroke-opacity:1"
           id="path76" /><path
           d="m 29.51,256.63 c 0,1.07 0.88,1.95 1.95,1.95 1.08,0 1.95,-0.88 1.95,-1.95 0,-1.08 -0.87,-1.96 -1.95,-1.96 -1.07,0 -1.95,0.88 -1.95,1.96"
           style="fill:#00bf7d;fill-opacity:1;fill-rule:nonzero;stroke:#00bf7d;stroke-width:0.71;stroke-linecap:round;stroke-linejoin:round;stroke-miterlimit:10;stroke-dasharray:none;stroke-opacity:1"
           id="path78" /><path
           d="m 29.51,256.63 c 0,1.07 0.88,1.95 1.95,1.95 1.08,0 1.95,-0.88 1.95,-1.95 0,-1.08 -0.87,-1.96 -1.95,-1.96 -1.07,0 -1.95,0.88 -1.95,1.96"
           style="fill:#00bfc4;fill-opacity:1;fill-rule:nonzero;stroke:#00bfc4;stroke-width:0.71;stroke-linecap:round;stroke-linejoin:round;stroke-miterlimit:10;stroke-dasharray:none;stroke-opacity:1"
           id="path80" /><path
           d="m 29.51,256.63 c 0,1.07 0.88,1.95 1.95,1.95 1.08,0 1.95,-0.88 1.95,-1.95 0,-1.08 -0.87,-1.96 -1.95,-1.96 -1.07,0 -1.95,0.88 -1.95,1.96"
           style="fill:#00b0f6;fill-opacity:1;fill-rule:nonzero;stroke:#00b0f6;stroke-width:0.71;stroke-linecap:round;stroke-linejoin:round;stroke-miterlimit:10;stroke-dasharray:none;stroke-opacity:1"
           id="path82" /><path
           d="m 29.51,256.63 c 0,1.07 0.88,1.95 1.95,1.95 1.08,0 1.95,-0.88 1.95,-1.95 0,-1.08 -0.87,-1.96 -1.95,-1.96 -1.07,0 -1.95,0.88 -1.95,1.96"
           style="fill:#9590ff;fill-opacity:1;fill-rule:nonzero;stroke:#9590ff;stroke-width:0.71;stroke-linecap:round;stroke-linejoin:round;stroke-miterlimit:10;stroke-dasharray:none;stroke-opacity:1"
           id="path84" /><path
           d="m 29.51,256.63 c 0,1.07 0.88,1.95 1.95,1.95 1.08,0 1.95,-0.88 1.95,-1.95 0,-1.08 -0.87,-1.96 -1.95,-1.96 -1.07,0 -1.95,0.88 -1.95,1.96"
           style="fill:#e76bf3;fill-opacity:1;fill-rule:nonzero;stroke:#e76bf3;stroke-width:0.71;stroke-linecap:round;stroke-linejoin:round;stroke-miterlimit:10;stroke-dasharray:none;stroke-opacity:1"
           id="path86" /><path
           d="m 29.51,256.63 c 0,1.07 0.88,1.95 1.95,1.95 1.08,0 1.95,-0.88 1.95,-1.95 0,-1.08 -0.87,-1.96 -1.95,-1.96 -1.07,0 -1.95,0.88 -1.95,1.96"
           style="fill:#ff62bc;fill-opacity:1;fill-rule:nonzero;stroke:#ff62bc;stroke-width:0.71;stroke-linecap:round;stroke-linejoin:round;stroke-miterlimit:10;stroke-dasharray:none;stroke-opacity:1"
           id="path88" /><path
           d="m 261.92,165.58 c 0,1.08 0.87,1.96 1.95,1.96 1.08,0 1.95,-0.88 1.95,-1.96 0,-1.07 -0.87,-1.95 -1.95,-1.95 -1.08,0 -1.95,0.88 -1.95,1.95"
           style="fill:#f8766d;fill-opacity:1;fill-rule:nonzero;stroke:#f8766d;stroke-width:0.71;stroke-linecap:round;stroke-linejoin:round;stroke-miterlimit:10;stroke-dasharray:none;stroke-opacity:1"
           id="path90" /><path
           d="m 261.92,216.16 c 0,1.08 0.87,1.96 1.95,1.96 1.08,0 1.95,-0.88 1.95,-1.96 0,-1.07 -0.87,-1.95 -1.95,-1.95 -1.08,0 -1.95,0.88 -1.95,1.95"
           style="fill:#d89000;fill-opacity:1;fill-rule:nonzero;stroke:#d89000;stroke-width:0.71;stroke-linecap:round;stroke-linejoin:round;stroke-miterlimit:10;stroke-dasharray:none;stroke-opacity:1"
           id="path92" /><path
           d="m 261.92,219.53 c 0,1.08 0.87,1.96 1.95,1.96 1.08,0 1.95,-0.88 1.95,-1.96 0,-1.07 -0.87,-1.95 -1.95,-1.95 -1.08,0 -1.95,0.88 -1.95,1.95"
           style="fill:#a3a500;fill-opacity:1;fill-rule:nonzero;stroke:#a3a500;stroke-width:0.71;stroke-linecap:round;stroke-linejoin:round;stroke-miterlimit:10;stroke-dasharray:none;stroke-opacity:1"
           id="path94" /><path
           d="m 261.92,158.84 c 0,1.07 0.87,1.95 1.95,1.95 1.08,0 1.95,-0.88 1.95,-1.95 0,-1.08 -0.87,-1.96 -1.95,-1.96 -1.08,0 -1.95,0.88 -1.95,1.96"
           style="fill:#39b600;fill-opacity:1;fill-rule:nonzero;stroke:#39b600;stroke-width:0.71;stroke-linecap:round;stroke-linejoin:round;stroke-miterlimit:10;stroke-dasharray:none;stroke-opacity:1"
           id="path96" /><path
           d="m 261.92,222.91 c 0,1.07 0.87,1.95 1.95,1.95 1.08,0 1.95,-0.88 1.95,-1.95 0,-1.08 -0.87,-1.96 -1.95,-1.96 -1.08,0 -1.95,0.88 -1.95,1.96"
           style="fill:#00bf7d;fill-opacity:1;fill-rule:nonzero;stroke:#00bf7d;stroke-width:0.71;stroke-linecap:round;stroke-linejoin:round;stroke-miterlimit:10;stroke-dasharray:none;stroke-opacity:1"
           id="path98" /><path
           d="m 261.92,131.86 c 0,1.08 0.87,1.95 1.95,1.95 1.08,0 1.95,-0.87 1.95,-1.95 0,-1.07 -0.87,-1.95 -1.95,-1.95 -1.08,0 -1.95,0.88 -1.95,1.95"
           style="fill:#00bfc4;fill-opacity:1;fill-rule:nonzero;stroke:#00bfc4;stroke-width:0.71;stroke-linecap:round;stroke-linejoin:round;stroke-miterlimit:10;stroke-dasharray:none;stroke-opacity:1"
           id="path100" /><path
           d="m 261.92,168.95 c 0,1.08 0.87,1.96 1.95,1.96 1.08,0 1.95,-0.88 1.95,-1.96 0,-1.07 -0.87,-1.95 -1.95,-1.95 -1.08,0 -1.95,0.88 -1.95,1.95"
           style="fill:#00b0f6;fill-opacity:1;fill-rule:nonzero;stroke:#00b0f6;stroke-width:0.71;stroke-linecap:round;stroke-linejoin:round;stroke-miterlimit:10;stroke-dasharray:none;stroke-opacity:1"
           id="path102" /><path
           d="m 261.92,222.91 c 0,1.07 0.87,1.95 1.95,1.95 1.08,0 1.95,-0.88 1.95,-1.95 0,-1.08 -0.87,-1.96 -1.95,-1.96 -1.08,0 -1.95,0.88 -1.95,1.96"
           style="fill:#9590ff;fill-opacity:1;fill-rule:nonzero;stroke:#9590ff;stroke-width:0.71;stroke-linecap:round;stroke-linejoin:round;stroke-miterlimit:10;stroke-dasharray:none;stroke-opacity:1"
           id="path104" /><path
           d="m 261.92,182.44 c 0,1.08 0.87,1.96 1.95,1.96 1.08,0 1.95,-0.88 1.95,-1.96 0,-1.07 -0.87,-1.95 -1.95,-1.95 -1.08,0 -1.95,0.88 -1.95,1.95"
           style="fill:#e76bf3;fill-opacity:1;fill-rule:nonzero;stroke:#e76bf3;stroke-width:0.71;stroke-linecap:round;stroke-linejoin:round;stroke-miterlimit:10;stroke-dasharray:none;stroke-opacity:1"
           id="path106" /><path
           d="m 261.92,158.84 c 0,1.07 0.87,1.95 1.95,1.95 1.08,0 1.95,-0.88 1.95,-1.95 0,-1.08 -0.87,-1.96 -1.95,-1.96 -1.08,0 -1.95,0.88 -1.95,1.96"
           style="fill:#ff62bc;fill-opacity:1;fill-rule:nonzero;stroke:#ff62bc;stroke-width:0.71;stroke-linecap:round;stroke-linejoin:round;stroke-miterlimit:10;stroke-dasharray:none;stroke-opacity:1"
           id="path108" /><path
           d="m 312.75,128.49 c 0,1.07 0.88,1.95 1.96,1.95 1.07,0 1.95,-0.88 1.95,-1.95 0,-1.08 -0.88,-1.96 -1.95,-1.96 -1.08,0 -1.96,0.88 -1.96,1.96"
           style="fill:#f8766d;fill-opacity:1;fill-rule:nonzero;stroke:#f8766d;stroke-width:0.71;stroke-linecap:round;stroke-linejoin:round;stroke-miterlimit:10;stroke-dasharray:none;stroke-opacity:1"
           id="path110" /><path
           d="m 312.75,209.42 c 0,1.07 0.88,1.95 1.96,1.95 1.07,0 1.95,-0.88 1.95,-1.95 0,-1.08 -0.88,-1.96 -1.95,-1.96 -1.08,0 -1.96,0.88 -1.96,1.96"
           style="fill:#d89000;fill-opacity:1;fill-rule:nonzero;stroke:#d89000;stroke-width:0.71;stroke-linecap:round;stroke-linejoin:round;stroke-miterlimit:10;stroke-dasharray:none;stroke-opacity:1"
           id="path112" /><path
           d="m 312.75,219.53 c 0,1.08 0.88,1.96 1.96,1.96 1.07,0 1.95,-0.88 1.95,-1.96 0,-1.07 -0.88,-1.95 -1.95,-1.95 -1.08,0 -1.96,0.88 -1.96,1.95"
           style="fill:#a3a500;fill-opacity:1;fill-rule:nonzero;stroke:#a3a500;stroke-width:0.71;stroke-linecap:round;stroke-linejoin:round;stroke-miterlimit:10;stroke-dasharray:none;stroke-opacity:1"
           id="path114" /><path
           d="m 312.75,111.63 c 0,1.07 0.88,1.95 1.96,1.95 1.07,0 1.95,-0.88 1.95,-1.95 0,-1.08 -0.88,-1.96 -1.95,-1.96 -1.08,0 -1.96,0.88 -1.96,1.96"
           style="fill:#39b600;fill-opacity:1;fill-rule:nonzero;stroke:#39b600;stroke-width:0.71;stroke-linecap:round;stroke-linejoin:round;stroke-miterlimit:10;stroke-dasharray:none;stroke-opacity:1"
           id="path116" /><path
           d="m 312.75,195.93 c 0,1.08 0.88,1.95 1.96,1.95 1.07,0 1.95,-0.87 1.95,-1.95 0,-1.08 -0.88,-1.95 -1.95,-1.95 -1.08,0 -1.96,0.87 -1.96,1.95"
           style="fill:#00bf7d;fill-opacity:1;fill-rule:nonzero;stroke:#00bf7d;stroke-width:0.71;stroke-linecap:round;stroke-linejoin:round;stroke-miterlimit:10;stroke-dasharray:none;stroke-opacity:1"
           id="path118" /><path
           d="m 312.75,128.49 c 0,1.07 0.88,1.95 1.96,1.95 1.07,0 1.95,-0.88 1.95,-1.95 0,-1.08 -0.88,-1.96 -1.95,-1.96 -1.08,0 -1.96,0.88 -1.96,1.96"
           style="fill:#00bfc4;fill-opacity:1;fill-rule:nonzero;stroke:#00bfc4;stroke-width:0.71;stroke-linecap:round;stroke-linejoin:round;stroke-miterlimit:10;stroke-dasharray:none;stroke-opacity:1"
           id="path120" /><path
           d="m 312.75,155.46 c 0,1.08 0.88,1.96 1.96,1.96 1.07,0 1.95,-0.88 1.95,-1.96 0,-1.07 -0.88,-1.95 -1.95,-1.95 -1.08,0 -1.96,0.88 -1.96,1.95"
           style="fill:#00b0f6;fill-opacity:1;fill-rule:nonzero;stroke:#00b0f6;stroke-width:0.71;stroke-linecap:round;stroke-linejoin:round;stroke-miterlimit:10;stroke-dasharray:none;stroke-opacity:1"
           id="path122" /><path
           d="m 312.75,222.91 c 0,1.07 0.88,1.95 1.96,1.95 1.07,0 1.95,-0.88 1.95,-1.95 0,-1.08 -0.88,-1.96 -1.95,-1.96 -1.08,0 -1.96,0.88 -1.96,1.96"
           style="fill:#9590ff;fill-opacity:1;fill-rule:nonzero;stroke:#9590ff;stroke-width:0.71;stroke-linecap:round;stroke-linejoin:round;stroke-miterlimit:10;stroke-dasharray:none;stroke-opacity:1"
           id="path124" /><path
           d="m 312.75,175.7 c 0,1.07 0.88,1.95 1.96,1.95 1.07,0 1.95,-0.88 1.95,-1.95 0,-1.08 -0.88,-1.96 -1.95,-1.96 -1.08,0 -1.96,0.88 -1.96,1.96"
           style="fill:#e76bf3;fill-opacity:1;fill-rule:nonzero;stroke:#e76bf3;stroke-width:0.71;stroke-linecap:round;stroke-linejoin:round;stroke-miterlimit:10;stroke-dasharray:none;stroke-opacity:1"
           id="path126" /><path
           d="m 312.75,138.6 c 0,1.08 0.88,1.96 1.96,1.96 1.07,0 1.95,-0.88 1.95,-1.96 0,-1.07 -0.88,-1.95 -1.95,-1.95 -1.08,0 -1.96,0.88 -1.96,1.95"
           style="fill:#ff62bc;fill-opacity:1;fill-rule:nonzero;stroke:#ff62bc;stroke-width:0.71;stroke-linecap:round;stroke-linejoin:round;stroke-miterlimit:10;stroke-dasharray:none;stroke-opacity:1"
           id="path128" /><path
           d="m 385.38,30.7 c 0,1.07 0.88,1.95 1.96,1.95 1.07,0 1.95,-0.88 1.95,-1.95 0,-1.08 -0.88,-1.96 -1.95,-1.96 -1.08,0 -1.96,0.88 -1.96,1.96"
           style="fill:#f8766d;fill-opacity:1;fill-rule:nonzero;stroke:#f8766d;stroke-width:0.71;stroke-linecap:round;stroke-linejoin:round;stroke-miterlimit:10;stroke-dasharray:none;stroke-opacity:1"
           id="path130" /><path
           d="m 385.38,209.42 c 0,1.07 0.88,1.95 1.96,1.95 1.07,0 1.95,-0.88 1.95,-1.95 0,-1.08 -0.88,-1.96 -1.95,-1.96 -1.08,0 -1.96,0.88 -1.96,1.96"
           style="fill:#d89000;fill-opacity:1;fill-rule:nonzero;stroke:#d89000;stroke-width:0.71;stroke-linecap:round;stroke-linejoin:round;stroke-miterlimit:10;stroke-dasharray:none;stroke-opacity:1"
           id="path132" /><path
           d="m 385.38,192.56 c 0,1.07 0.88,1.95 1.96,1.95 1.07,0 1.95,-0.88 1.95,-1.95 0,-1.08 -0.88,-1.96 -1.95,-1.96 -1.08,0 -1.96,0.88 -1.96,1.96"
           style="fill:#a3a500;fill-opacity:1;fill-rule:nonzero;stroke:#a3a500;stroke-width:0.71;stroke-linecap:round;stroke-linejoin:round;stroke-miterlimit:10;stroke-dasharray:none;stroke-opacity:1"
           id="path134" /><path
           d="m 385.38,77.91 c 0,1.07 0.88,1.95 1.96,1.95 1.07,0 1.95,-0.88 1.95,-1.95 0,-1.08 -0.88,-1.96 -1.95,-1.96 -1.08,0 -1.96,0.88 -1.96,1.96"
           style="fill:#39b600;fill-opacity:1;fill-rule:nonzero;stroke:#39b600;stroke-width:0.71;stroke-linecap:round;stroke-linejoin:round;stroke-miterlimit:10;stroke-dasharray:none;stroke-opacity:1"
           id="path136" /><path
           d="m 385.38,185.81 c 0,1.08 0.88,1.96 1.96,1.96 1.07,0 1.95,-0.88 1.95,-1.96 0,-1.07 -0.88,-1.95 -1.95,-1.95 -1.08,0 -1.96,0.88 -1.96,1.95"
           style="fill:#00bf7d;fill-opacity:1;fill-rule:nonzero;stroke:#00bf7d;stroke-width:0.71;stroke-linecap:round;stroke-linejoin:round;stroke-miterlimit:10;stroke-dasharray:none;stroke-opacity:1"
           id="path138" /><path
           d="m 385.38,111.63 c 0,1.07 0.88,1.95 1.96,1.95 1.07,0 1.95,-0.88 1.95,-1.95 0,-1.08 -0.88,-1.96 -1.95,-1.96 -1.08,0 -1.96,0.88 -1.96,1.96"
           style="fill:#00bfc4;fill-opacity:1;fill-rule:nonzero;stroke:#00bfc4;stroke-width:0.71;stroke-linecap:round;stroke-linejoin:round;stroke-miterlimit:10;stroke-dasharray:none;stroke-opacity:1"
           id="path140" /><path
           d="m 385.38,138.6 c 0,1.08 0.88,1.96 1.96,1.96 1.07,0 1.95,-0.88 1.95,-1.96 0,-1.07 -0.88,-1.95 -1.95,-1.95 -1.08,0 -1.96,0.88 -1.96,1.95"
           style="fill:#00b0f6;fill-opacity:1;fill-rule:nonzero;stroke:#00b0f6;stroke-width:0.71;stroke-linecap:round;stroke-linejoin:round;stroke-miterlimit:10;stroke-dasharray:none;stroke-opacity:1"
           id="path142" /><path
           d="m 385.38,219.53 c 0,1.08 0.88,1.96 1.96,1.96 1.07,0 1.95,-0.88 1.95,-1.96 0,-1.07 -0.88,-1.95 -1.95,-1.95 -1.08,0 -1.96,0.88 -1.96,1.95"
           style="fill:#9590ff;fill-opacity:1;fill-rule:nonzero;stroke:#9590ff;stroke-width:0.71;stroke-linecap:round;stroke-linejoin:round;stroke-miterlimit:10;stroke-dasharray:none;stroke-opacity:1"
           id="path144" /><path
           d="m 385.38,162.21 c 0,1.07 0.88,1.95 1.96,1.95 1.07,0 1.95,-0.88 1.95,-1.95 0,-1.08 -0.88,-1.96 -1.95,-1.96 -1.08,0 -1.96,0.88 -1.96,1.96"
           style="fill:#e76bf3;fill-opacity:1;fill-rule:nonzero;stroke:#e76bf3;stroke-width:0.71;stroke-linecap:round;stroke-linejoin:round;stroke-miterlimit:10;stroke-dasharray:none;stroke-opacity:1"
           id="path146" /><path
           d="m 385.38,101.51 c 0,1.08 0.88,1.96 1.96,1.96 1.07,0 1.95,-0.88 1.95,-1.96 0,-1.07 -0.88,-1.95 -1.95,-1.95 -1.08,0 -1.96,0.88 -1.96,1.95"
           style="fill:#ff62bc;fill-opacity:1;fill-rule:nonzero;stroke:#ff62bc;stroke-width:0.71;stroke-linecap:round;stroke-linejoin:round;stroke-miterlimit:10;stroke-dasharray:none;stroke-opacity:1"
           id="path148" /><path
           d="M 31.46,256.63 263.87,165.58 314.71,128.49 387.34,30.7"
           style="fill:none;stroke:#f8766d;stroke-width:2.13;stroke-linecap:butt;stroke-linejoin:round;stroke-miterlimit:10;stroke-dasharray:none;stroke-opacity:1"
           id="path150" /><path
           d="m 31.46,256.63 232.41,-40.47 50.84,-6.74 h 72.63"
           style="fill:none;stroke:#d89000;stroke-width:2.13;stroke-linecap:butt;stroke-linejoin:round;stroke-miterlimit:10;stroke-dasharray:none;stroke-opacity:1"
           id="path152" /><path
           d="m 31.46,256.63 232.41,-37.1 h 50.84 l 72.63,-26.97"
           style="fill:none;stroke:#a3a500;stroke-width:2.13;stroke-linecap:butt;stroke-linejoin:round;stroke-miterlimit:10;stroke-dasharray:none;stroke-opacity:1"
           id="path154" /><path
           d="m 31.46,256.63 232.41,-97.79 50.84,-47.21 72.63,-33.72"
           style="fill:none;stroke:#39b600;stroke-width:2.13;stroke-linecap:butt;stroke-linejoin:round;stroke-miterlimit:10;stroke-dasharray:none;stroke-opacity:1"
           id="path156" /><path
           d="m 31.46,256.63 232.41,-33.72 50.84,-26.98 72.63,-10.12"
           style="fill:none;stroke:#00bf7d;stroke-width:2.13;stroke-linecap:butt;stroke-linejoin:round;stroke-miterlimit:10;stroke-dasharray:none;stroke-opacity:1"
           id="path158" /><path
           d="m 31.46,256.63 232.41,-124.77 50.84,-3.37 72.63,-16.86"
           style="fill:none;stroke:#00bfc4;stroke-width:2.13;stroke-linecap:butt;stroke-linejoin:round;stroke-miterlimit:10;stroke-dasharray:none;stroke-opacity:1"
           id="path160" /><path
           d="m 31.46,256.63 232.41,-87.68 50.84,-13.49 72.63,-16.86"
           style="fill:none;stroke:#00b0f6;stroke-width:2.13;stroke-linecap:butt;stroke-linejoin:round;stroke-miterlimit:10;stroke-dasharray:none;stroke-opacity:1"
           id="path162" /><path
           d="m 31.46,256.63 232.41,-33.72 h 50.84 l 72.63,-3.38"
           style="fill:none;stroke:#9590ff;stroke-width:2.13;stroke-linecap:butt;stroke-linejoin:round;stroke-miterlimit:10;stroke-dasharray:none;stroke-opacity:1"
           id="path164" /><path
           d="m 31.46,256.63 232.41,-74.19 50.84,-6.74 72.63,-13.49"
           style="fill:none;stroke:#e76bf3;stroke-width:2.13;stroke-linecap:butt;stroke-linejoin:round;stroke-miterlimit:10;stroke-dasharray:none;stroke-opacity:1"
           id="path166" /><path
           d="m 31.46,256.63 232.41,-97.79 50.84,-20.24 72.63,-37.09"
           style="fill:none;stroke:#ff62bc;stroke-width:2.13;stroke-linecap:butt;stroke-linejoin:round;stroke-miterlimit:10;stroke-dasharray:none;stroke-opacity:1"
           id="path168" /><path
           d="m 399.95,210.8 -9.66,-1.2"
           style="fill:none;stroke:#bebebe;stroke-width:0.21;stroke-linecap:round;stroke-linejoin:round;stroke-miterlimit:10;stroke-dasharray:none;stroke-opacity:1"
           id="path170" /><path
           d="m 400.03586,194.13392 -9.66,-1.2"
           style="fill:none;stroke:#bebebe;stroke-width:0.21;stroke-linecap:round;stroke-linejoin:round;stroke-miterlimit:10;stroke-dasharray:none;stroke-opacity:1"
           id="path170-8" /><path
           d="m 399.66465,182.63435 -9.14156,3.3448"
           style="fill:none;stroke:#bebebe;stroke-width:0.21;stroke-linecap:round;stroke-linejoin:round;stroke-miterlimit:10;stroke-dasharray:none;stroke-opacity:1"
           id="path170-2" /><path
           d="m 400.16261,221.61781 -9.66,-1.2"
           style="fill:none;stroke:#bebebe;stroke-width:0.21;stroke-linecap:round;stroke-linejoin:round;stroke-miterlimit:10;stroke-dasharray:none;stroke-opacity:1"
           id="path170-5" /><path
           d="m 399.07765,138.07006 -8.35753,-0.02"
           style="fill:none;stroke:#bebebe;stroke-width:0.180282;stroke-linecap:round;stroke-linejoin:round;stroke-miterlimit:10;stroke-dasharray:none;stroke-opacity:1"
           id="path172" /><path
           d="m 399.60859,161.29136 -8.35753,-0.02"
           style="fill:none;stroke:#bebebe;stroke-width:0.180282;stroke-linecap:round;stroke-linejoin:round;stroke-miterlimit:10;stroke-dasharray:none;stroke-opacity:1"
           id="path172-4" /><path
           d="m 399.29501,113.92679 -8.04265,-2.27252"
           style="fill:none;stroke:#bebebe;stroke-width:0.180282;stroke-linecap:round;stroke-linejoin:round;stroke-miterlimit:10;stroke-dasharray:none;stroke-opacity:1"
           id="path172-7" /><text
           transform="scale(1,-1)"
           style="font-variant:normal;font-weight:normal;font-size:9px;font-family:Helvetica;-inkscape-font-specification:Helvetica;writing-mode:lr-tb;fill:#000000;fill-opacity:1;fill-rule:nonzero;stroke:none"
           id="text176"
           x="400.83575"
           y="-27.206499"><tspan
             x="400.83575 406.09177 411.09576 416.09976 424.10077 426.60275 431.85876 434.36075 440.36377 445.36777 450.37177 454.87177 459.37177 461.36975 465.86975 468.37177 475.37375 477.37177 482.37576 486.87576 488.87375 493.87775"
             y="-27.206499"
             sodipodi:role="line"
             id="tspan174">67%  Agassiz Glacier</tspan></text><text
           transform="scale(1,-1)"
           style="font-variant:normal;font-weight:normal;font-size:9px;font-family:Helvetica;-inkscape-font-specification:Helvetica;writing-mode:lr-tb;fill:#000000;fill-opacity:1;fill-rule:nonzero;stroke:none"
           id="text180"
           x="400.83575"
           y="-206.9865"><tspan
             x="400.83575 406.09177 411.09576 416.09976 424.10077 426.60275 431.85876 434.36075 440.36377 445.36777 450.37177 453.59375 458.59775 461.09976 468.10175 470.09976 475.10376 479.60376 481.60175 486.60574"
             y="-206.9865"
             sodipodi:role="line"
             id="tspan178">14%  Ahern Glacier</tspan></text><text
           transform="scale(1,-1)"
           style="font-variant:normal;font-weight:normal;font-size:9px;font-family:Helvetica;-inkscape-font-specification:Helvetica;writing-mode:lr-tb;fill:#000000;fill-opacity:1;fill-rule:nonzero;stroke:none"
           id="text184"
           x="400.83575"
           y="-193.2765"><tspan
             x="400.83575 406.09177 411.09576 416.09976 424.10077 426.60275 431.85876 434.36078 440.36377 442.36176 447.36575 451.86575 456.36575 458.59778 463.60178 468.60577 471.10776 473.60977 480.61176 482.60977 487.61377 492.11377 494.11176 499.11578"
             y="-193.2765"
             sodipodi:role="line"
             id="tspan182">19%  Blackfoot Glacier</tspan></text><text
           transform="scale(1,-1)"
           style="font-variant:normal;font-weight:normal;font-size:9px;font-family:Helvetica;-inkscape-font-specification:Helvetica;writing-mode:lr-tb;fill:#000000;fill-opacity:1;fill-rule:nonzero;stroke:none"
           id="text188"
           x="400.83575"
           y="-73.666504"><tspan
             x="400.83575 406.09177 411.09576 416.09976 424.10077 426.60275 431.85876 434.36075 441.36276 444.49475 446.49277 451.49677 456.50076 461.50476 463.50275 465.50076 468.00275 475.00476 477.00275 482.00674 486.50674 488.50476 493.50876"
             y="-73.666504"
             sodipodi:role="line"
             id="tspan186">53%  Grinnell Glacier</tspan></text><text
           transform="scale(1,-1)"
           style="font-variant:normal;font-weight:normal;font-size:9px;font-family:Helvetica;-inkscape-font-specification:Helvetica;writing-mode:lr-tb;fill:#000000;fill-opacity:1;fill-rule:nonzero;stroke:none"
           id="text192"
           x="400.83575"
           y="-179.60651"><tspan
             x="400.83575 406.09174 411.09573 416.09976 424.10074 426.60275 431.85873 434.36075 440.85873 445.86276 448.85974 451.99176 453.98975 458.48975 463.49374 468.49774 470.99976 478.00174 479.99976 485.00375 489.50375 491.50174 496.50574"
             y="-179.60651"
             sodipodi:role="line"
             id="tspan190">21%  Harrison Glacier</tspan></text><text
           transform="scale(1,-1)"
           style="font-variant:normal;font-weight:normal;font-size:9px;font-family:Helvetica;-inkscape-font-specification:Helvetica;writing-mode:lr-tb;fill:#000000;fill-opacity:1;fill-rule:nonzero;stroke:none"
           id="text196"
           x="400.83575"
           y="-110.9065"><tspan
             x="400.83575 406.09177 411.09576 416.09976 424.10074 426.60275 431.85876 434.36075 438.68076 443.68475 448.18475 452.68475 457.18475 462.18875 467.19275 469.69476 476.69675 478.69476 483.69876 488.19876 490.19675 495.20074"
             y="-110.9065"
             sodipodi:role="line"
             id="tspan194">43%  Jackson Glacier</tspan></text><text
           transform="scale(1,-1)"
           style="font-variant:normal;font-weight:normal;font-size:9px;font-family:Helvetica;-inkscape-font-specification:Helvetica;writing-mode:lr-tb;fill:#000000;fill-opacity:1;fill-rule:nonzero;stroke:none"
           id="text200"
           x="400.83575"
           y="-134.76649"><tspan
             x="400.83575 406.09177 411.09576 416.09976 424.10077 426.60275 431.85876 434.36075 440.36377 442.36176 447.36575 449.86777 451.86575 456.86975 459.37177 466.37375 468.37177 473.37576 477.87576 479.87375 484.87775"
             y="-134.76649"
             sodipodi:role="line"
             id="tspan198">35%  Kintla Glacier</tspan></text><text
           transform="scale(1,-1)"
           style="font-variant:normal;font-weight:normal;font-size:9px;font-family:Helvetica;-inkscape-font-specification:Helvetica;writing-mode:lr-tb;fill:#000000;fill-opacity:1;fill-rule:nonzero;stroke:none"
           id="text204"
           x="400.83575"
           y="-220.63651"><tspan
             x="400.83575 406.09174 411.09573 416.09973 424.10074 426.60275 431.85873 434.36075 440.36374 445.36774 452.86475 457.86874 462.87274 464.87076 466.86874 471.36874 473.87076 480.87274 482.87076 487.87476 492.37476 494.37274 499.37674"
             y="-220.63651"
             sodipodi:role="line"
             id="tspan202">11%  Pumpelly Glacier</tspan></text><text
           transform="scale(1,-1)"
           style="font-variant:normal;font-weight:normal;font-size:9px;font-family:Helvetica;-inkscape-font-specification:Helvetica;writing-mode:lr-tb;fill:#000000;fill-opacity:1;fill-rule:nonzero;stroke:none"
           id="text208"
           x="400.83575"
           y="-157.96651"><tspan
             x="400.83575 406.09177 411.09576 416.09976 424.10077 426.60278 431.85876 434.36078 440.85876 445.86276 447.86078 452.86478 457.86877 462.73776 469.23578 471.73776 478.73978 480.73776 485.74176 490.24176 492.23978 497.24377"
             y="-157.96651"
             sodipodi:role="line"
             id="tspan206">28%  Rainbow Glacier</tspan></text><text
           transform="scale(1,-1)"
           style="font-variant:normal;font-weight:normal;font-size:9px;font-family:Helvetica;-inkscape-font-specification:Helvetica;writing-mode:lr-tb;fill:#000000;fill-opacity:1;fill-rule:nonzero;stroke:none"
           id="text212"
           x="400.83575"
           y="-97.226501"><tspan
             x="400.83575 406.09177 411.09576 416.09976 424.10077 426.60275 431.85876 434.36075 440.36377 445.36777 450.37177 453.36877 456.63577 461.13577 463.63776 470.63977 472.63776 477.64175 482.14175 484.13977 489.14377"
             y="-97.226501"
             sodipodi:role="line"
             id="tspan210">46%  Sperry Glacier</tspan></text><text
           transform="scale(1,-1)"
           style="font-variant:normal;font-weight:normal;font-size:9px;font-family:Helvetica;-inkscape-font-specification:Helvetica;writing-mode:lr-tb;fill:#000000;fill-opacity:1;fill-rule:nonzero;stroke:none"
           id="text216"
           x="7.3097496"
           y="-259.02512"><tspan
             x="7.3097496 12.31375 17.317751 22.321751"
             y="-259.02512"
             sodipodi:role="line"
             id="tspan214">100%</tspan></text></g></g><g
       id="g1161"
       inkscape:label="Grinnell_glacier"
       transform="matrix(0.29147425,0,0,0.29147425,20.55718,-79.615184)"><g
         id="g1163" /><g
         id="g1265"
         style="stroke-width:1.00094608;stroke-miterlimit:4;stroke-dasharray:none"><g
           clip-path="url(#clipPath5735)"
           id="g1263"
           style="stroke-width:1.00094608;stroke-miterlimit:4;stroke-dasharray:none"><g
             transform="matrix(0.48,0,0,-0.48,0,792)"
             id="g1261"
             style="stroke-width:2.08530433;stroke-miterlimit:4;stroke-dasharray:none"><g
               id="g1259"
               style="stroke-width:2.08530433;stroke-miterlimit:4;stroke-dasharray:none"><g
                 id="g1217"
                 transform="matrix(1.7946006,0,0,1.7588692,-284.84178,-692.51921)"
                 style="stroke-width:1.17373152;stroke-miterlimit:4;stroke-dasharray:none"><g
                   clip-path="url(#clipPath1171)"
                   id="g1215"
                   style="stroke-width:1.17373152;stroke-miterlimit:4;stroke-dasharray:none"><g
                     clip-path="url(#clipPath1175)"
                     id="g1213"
                     style="stroke-width:1.17373152;stroke-miterlimit:4;stroke-dasharray:none"><g
                       transform="matrix(2.0833333,0,0,-2.0833333,628.61332,525.69113)"
                       id="g1211"
                       style="stroke-width:0.56339114;stroke-miterlimit:4;stroke-dasharray:none"><path
                         d="m 160.8,-117.5 3.6,-4.9 2.2,-6.9 -5.4,-10.2 -0.7,-5.5 2.1,-11.1 12,-14.5 -2,-2.6 -58.4,-8.2 -39.8,0.8 -26.5,5.1 -16.3,7.6 -8.7,6 -31.1,-0.2 -8.5,-2.2 -5.9,2.8 -9.9,-1 -21.3,12.2 -24.4,3.3 -4.9,2 -8.5,8.2 -4.7,1.5 -18.4,2.7 -8.9,3.9 -13.3,6.9 -5.1,6.7 -1.3,7.6 -5.3,7.3 -6.1,13.5 -6.5,11.8 -10.2,2.1 -3.3,3 2,22.9 -1.5,6.6 -11.6,7.1 1.6,34.2 0.4,16 -5.5,18.6 -7.6,14.2 -3.9,18.3 7,52 5.1,9.5 3.7,1.9 2.3,-3.6 11,-9.7 12.8,-5.6 23.9,-2.7 17.5,-1.3 13.1,0.8 13.1,15 7.8,3 33.8,-25.5 12.8,-25.4 4.4,-16.7 13.1,-22.4 16.1,-28.1 47.7,-41.6 16.8,-14.3 19.3,-18.9 23.9,-18.6 43,-24.6 9.2,-8.1 z"
                         style="fill:#828282;fill-opacity:0;fill-rule:evenodd;stroke:#000000;stroke-width:0.56339114;stroke-linecap:round;stroke-linejoin:round;stroke-miterlimit:4;stroke-dasharray:none;stroke-opacity:1"
                         id="path1189" /><path
                         d="m 178,-163 0.2,1 1.1,-0.8 z m 0,0 -0.3,-2.5 -4.1,-1.5 3.6,-1.4 -0.6,-1.1 -3,-1.3 -2.7,-1.2 -3,-0.6 -1.6,0.2 -2.1,-1 -3.9,-1 -1.6,0.9 -3.4,0.3 h -2.4 l -0.6,1 -1,-0.2 -0.8,0.6 -0.7,1 -2.6,0.8 -2.6,-0.4 -5.2,-1 -1.8,-2.8 -5.9,-1.2 -5,0.6 -3.6,-1.6 -5,0.8 -3.8,0.6 -2.4,-0.6 -4.4,-1.5 -5.5,-0.8 -3,-0.2 -3,0.5 -2,-0.1 -2.4,0.2 -1.9,-0.2 -1.7,-0.2 -1.2,1.3 -1.6,0.8 -3.4,1 -3.3,0.2 -1.4,-0.8 -1.2,0.4 -1.2,0.8 -0.4,-0.6 -2.6,0.4 -0.7,-0.8 -1.9,-0.4 h -1.2 l -3.2,0.6 -3.4,1.6 -3,1.8 -5.3,1.6 -2.8,0.4 -1.6,0.6 -2,0.6 -3.2,2 -4.2,3.2 -2.1,-0.9 -2.6,0.2 -3.6,2.2 -1.6,1.6 -4.6,-0.5 -4,-0.5 -4.6,1.4 -3.2,-0.4 -3.5,0.9 -3.8,-0.4 H 2.8 l -5,-1.6 -5,0.4 -2.2,0.8 -2.3,-0.1 -2.1,0.4 -2.7,-1.6 -1.4,0.3 -1.8,0.4 -2.4,0.8 -3.6,0.8 -6,0.4 -2,0.8 -3.7,-0.8 -1,0.4 -2.2,2 -1.2,1.8 -2.4,2.5 -2.8,1.4 -2.4,1.6 -2.6,1.8 -1.6,0.6 -4,0.6 -1.6,0.6 -2.1,0.8 -2,-0.2 -2.6,0.8 -4.2,1.4 -1.4,0.6 -0.8,-0.4 -2.4,-0.6 -2.6,0.8 -2.6,0.4 -2,1.2 -1.4,0.8 -1.9,-0.4 -2,2.8 -1.8,3 -2.6,1.8 -3.2,2.5 -2.6,1.4 h -3.6 l -2.8,0.8 -4.7,2.4 -3.2,0.8 -4.4,1 -3.6,0.4 -4,3.2 -2.4,3.8 -5.9,2.5 -2,4.4 -3.5,5.6 -3.8,2.6 -5.1,5.5 -4.3,7 -3.5,5.2 -4.4,3 -7.6,10.3 -2,1 -2.1,3.3 0.4,6.5 0.2,3.2 1.4,3.2 -0.8,6.6 -3.2,6.2 -2.8,3.5 -4.9,1.2 -2.8,3.2 -0.4,4.4 v 4.6 l -1,3.6 0.2,4.8 2.8,0.6 -0.4,6.5 3,8.6 -1,3.8 4.5,12.7 -10.1,21.1 4.2,4.4 5.1,1.8 7.6,5.8 9.4,1.6 h 3.4 l 1,1.8 1.7,-0.6 2.4,2.4 5,0.2 0.8,2.5 7,1.2 1,1 15.3,17 21.7,-34.1 2.6,4.6 8.8,-4.2 3.8,-1.8 3.1,-0.4 6.4,-7.4 1.2,-3.7 2.6,-1.4 5.2,-4.8 -0.2,-3.2 6.1,-4 0.4,1.4 1.8,-1.6 -0.2,-3 4.4,-3.4 -0.2,1.8 1.6,0.8 3.6,2 1.8,-1.2 2,1.4 2.2,-1.6 0.2,-2.8 0.8,-2.3 2.8,-1 1.9,0.8 1.6,-1.6 -0.6,-3.8 1.2,-3 1,1.6 2.2,1.2 -1.2,2 0.2,1.4 2.8,1.4 2.6,-3.2 0.6,-3.4 2,-0.3 -0.8,4.1 2,-0.2 1.8,0.4 0.9,-3.1 3.1,-2.2 3.2,0.5 1.9,-7.4 2.6,-4.2 7.4,-0.4 1.4,-6.7 4.6,-4.4 2.6,-5.2 12.5,-8.6 0.2,-2.7 5.6,-2.8 3.8,-10.6 3.6,-2.2 5.7,-6.3 4.4,-3 8.6,-5.2 8.1,-5.6 h 2.6 l 10.6,-8.4 2.8,0.6 3.4,0.8 3.3,0.2 3.8,-3.5 6.4,-5.2 4.8,-2.6 8.9,-4.6 6.6,-5.6 1.4,-0.6 3.4,-1.6 h 1.4 l 1.4,-1.8 0.8,-0.9 1.6,-0.8 h 3 l 2.1,-3.8 2.4,-1.6 2.2,-1 0.6,-0.6 2.2,-0.8 2.6,-2.8 1,0.8 2.4,-1 1.8,-1.2 3,-1.4 2,-1.6 3.7,-1.4 7.6,-4.4 1,-0.4 v -2.1 l 1.4,-0.6 1,-1.2 0.8,-0.6 0.6,-0.8 1.2,-0.8 2,-0.8 1.4,0.1 1.8,0.2 2,1.4 2.7,1.4 1.4,1.4 2.4,0.9 2,2.3 2.2,-0.8 1.4,-0.4 -1.4,-1.5 -1.5,-2 -2.4,-1.6 -2.2,-1.4 -1.4,-0.5 -3.8,-4.7 -3.7,-1.6 -2.7,-1.8 -2.1,-2.6 -2.7,-0.5 -2.3,-1.6 -1.7,3.1 0.4,1.8 -0.7,-2.6 -2.3,-0.8 -2.4,-0.1 -3.5,0.7 -2.8,-0.6 -2.3,-1.5 -1.6,-0.1 -1.1,-1.2 1,-1.2 2,-2.1 -1,-1.4 0.2,-1.6 1.6,0.2 3.4,2 2.4,0.4 1.9,-1 3.2,0.4 v -2.8 l 1.6,-0.6 3.4,0.6 -1,-2 1.6,-1.2 2.8,-1.2 -0.4,-1 1.2,-1.4 3.4,-0.2 3.4,0.6 3.3,1.6 1.1,-0.4 2.1,0.9 z"
                         style="fill:#828282;fill-opacity:0;fill-rule:evenodd;stroke:#8400a8;stroke-width:0.56339114;stroke-linecap:round;stroke-linejoin:round;stroke-miterlimit:4;stroke-dasharray:none;stroke-opacity:1"
                         id="path1195" /><path
                         d="m 172.9,-171.7 0.1,0.1 -1.8,-0.7 -3.3,-1.7 -3.4,-0.1 -3.9,-0.4 -5,0.6 -2.8,-0.4 -2.6,2 -6,0.9 -5.3,-2.8 -2.6,-2.8 -3.8,-0.2 -2.5,1.1 -2.7,-2.2 -3.6,-1.7 -3.1,1.4 -3.7,0.8 -7.6,-0.3 -4.1,-1.3 -4.5,-1 -5.1,0.4 -4.3,-1.6 -4.3,2.2 -5,2 -8.8,-0.3 -5.4,0.1 -7.7,3 -4.6,2.2 -6.1,1.8 -4.6,3.3 -4.4,3.3 -3.6,-1 -7.2,3 -8.2,0.5 -11.3,2.2 -12.9,-4 -7.9,1.7 -4.9,-0.6 -12.8,1.4 -5.6,-0.7 -5.4,3.5 -1.5,3.3 -2.5,0.1 -4.5,2.8 -7.6,3.6 -7.6,1 -6.5,2.6 -1.5,-1.1 -4.7,1 -8.1,3.1 -3.5,4.5 -5,1.8 -11.1,5.3 -14.2,5.3 -8.7,7.8 -5.4,3.7 -2.6,3.1 -0.8,3.5 -4.3,4.2 -3.9,4.1 -3.4,4.3 -4,5.5 -4.7,4.4 -2.4,3.5 -4.8,7 -3.5,5.5 -1.5,3.8 -1.8,4.6 0.5,3.3 -0.5,2.9 -0.4,3.9 -2.9,6.5 -2.1,1.5 -5.7,11.2 -1.2,2.7 0.7,6.5 0.5,4.6 0.6,5.9 1.7,7.1 0.9,1.8 0.2,2.4 -0.2,2.1 1.5,3.3 1.7,2.2 -0.1,1.7 1.2,4.6 0.1,4.9 2.2,-0.3 4.6,-0.8 1.6,-0.3 2.7,-1.1 4,-0.1 3.9,0.1 h 4 l 5.4,-1.2 6,-0.3 6.6,0.8 2.8,0.1 3.3,0.7 3.1,-0.1 2.8,-0.1 1.1,-0.6 2.3,0.3 5.6,-0.2 1.4,0.1 1.7,0.8 1.8,0.1 2.5,0.2 4.9,-0.9 2.6,0.2 1.1,0.9 7.2,-2.9 0.7,-0.1 3,-1 1.1,0.2 2.3,-1.7 h 1.1 l 2.7,-1.4 2.7,-0.6 3.1,-2.3 h 1.5 l 1.3,-0.1 2.3,-1.4 2.1,-1.6 1.5,-0.8 2.5,-1.8 3,-1.9 4.1,-2.9 1.8,-1.8 3.9,-2.6 2.8,-1.8 1.4,-0.2 1.5,-1 3.4,0.4 6.1,-2.7 3.8,-1.4 1.4,-1.2 2.1,0.1 4.1,-0.7 5,-3.3 4.3,-0.4 2,-0.1 4.5,-4.8 3.4,-4 2.5,-2.9 3.4,-4.2 4.2,-3.9 5.3,-4.2 3.9,-4 8.8,-8.4 1.7,-1.9 3.1,-3.5 6.1,-4.7 3.2,-2.6 4.4,-3.2 4.8,-2.9 6.4,-2.8 5.9,-4.1 2.3,-2.4 4.6,-2.8 5.6,-3.3 4.1,-3.8 8.1,-4.2 4.4,-2.6 2.7,-2.4 4.6,-1.7 4.3,-1.3 4.8,-3 6.1,-0.8 9.6,-2.3 2.8,-2.4 5.9,-3.8 6.7,-4.2 8.9,-3 3.4,-3 3.2,-2 2.8,-2.7 0.9,-3 -0.8,-2.3 1.3,-2.6 3.9,-2 4.5,2 4.4,-0.5 -3,-3.1 -2.9,-0.8 -0.5,-1.3 -2.9,-0.3 -4.1,-3.7 -2,1 -3.3,-0.1 -4.4,-0.2 -4.9,-0.3 -2.1,-0.6 -4.1,-2.1 2.9,-1.6 4.3,0.2 2,-2.2 4.4,-3 5.4,-0.6 2,-2.4 2.5,-0.4 2.2,-1.9 5,-1.1 3,1 6.4,0.8 -1,-1.9 -0.4,-1.8 0.9,-1.6 z"
                         style="fill:#70a800;fill-opacity:0;fill-rule:evenodd;stroke:#70a800;stroke-width:0.56339114;stroke-linecap:round;stroke-linejoin:round;stroke-miterlimit:4;stroke-dasharray:none;stroke-opacity:1"
                         id="path1201" /><path
                         d="m -135.1,9.9 0.2,-0.2 h 0.1 0.1 0.1 0.1 V 9.6 h 0.1 0.1 V 9.5 h 0.1 0.1 0.1 V 9.4 h 0.1 0.1 0.1 0.1 0.1 0.1 0.1 V 9.3 h 0.1 0.2 0.1 0.1 V 9.2 h 0.1 0.1 0.1 0.1 0.1 V 9.1 h 0.1 0.1 0.1 0.1 0.1 0.1 V 9 h 0.1 0.1 0.1 V 8.9 h 0.1 0.1 V 8.8 h 0.1 0.1 V 8.7 h 0.1 0.1 V 8.6 h 0.1 0.1 l 0.2,-0.1 h 0.1 0.1 0.1 0.1 0.1 V 8.4 h 0.1 0.1 0.1 0.1 0.1 0.1 0.1 0.1 l 0.1,-0.1 h 0.1 0.1 0.1 0.1 l 0.1,-0.1 h 0.1 0.1 0.1 0.1 V 8 h 0.1 0.2 0.1 0.1 0.1 0.1 0.1 0.1 0.1 0.1 0.1 0.1 V 7.9 h 0.1 0.1 0.1 l 0.1,-0.1 h 0.1 V 7.7 h 0.1 0.1 V 7.6 h 0.1 0.1 V 7.5 h 0.1 0.1 V 7.4 h 0.1 l 0.1,-0.1 h 0.1 0.1 V 7.2 h 0.2 0.1 0.1 0.1 V 7.1 h 0.1 0.1 V 7 h 0.1 0.1 0.1 V 6.9 h 0.1 0.1 0.1 V 6.8 h 0.1 0.1 V 6.7 h 0.1 0.1 0.1 0.1 V 6.6 h 0.1 0.1 0.1 0.1 0.1 0.1 0.1 0.2 V 6.5 h 0.1 0.1 0.1 l 0.1,-0.1 h 0.1 0.1 V 6.3 h 0.1 0.1 l 0.1,-0.1 h 0.1 0.1 0.1 V 6.1 h 0.1 0.1 0.1 0.1 V 6 h 0.1 0.1 0.1 0.1 V 5.9 h 0.1 0.1 0.1 0.1 0.2 0.1 V 5.8 h 0.1 0.1 0.1 0.1 V 5.7 h 0.1 0.1 0.1 l 0.1,-0.1 h 0.1 0.1 l 0.1,-0.2 h 0.1 0.1 V 5.3 h 0.1 0.1 V 5.2 h 0.1 0.1 0.1 V 5.1 h 0.1 0.1 0.1 0.1 l 0.1,-0.1 h 0.2 0.1 0.1 V 4.9 h 0.1 0.1 0.1 l 0.1,-0.1 h 0.1 l 0.1,-0.1 h 0.1 0.1 V 4.6 h 0.1 0.1 V 4.5 h 0.1 0.1 0.1 0.1 0.1 V 4.4 h 0.1 0.1 0.1 0.1 V 4.3 h 0.1 0.1 0.1 V 4.2 h 0.1 0.2 0.1 0.1 V 4.1 h 0.1 0.1 0.1 0.1 V 4 h 0.1 0.1 l 0.1,-0.1 h 0.1 l 0.1,-0.1 h 0.1 l 0.1,-0.1 h 0.1 V 3.6 h 0.1 V 3.5 h 0.1 l 0.1,-0.1 h 0.1 l 0.1,-0.1 h 0.1 l 0.1,-0.1 h 0.1 l 0.1,-0.1 h 0.1 0.2 l 0.1,-0.1 h 0.1 0.1 l 0.1,-0.2 h 0.1 0.1 V 2.7 h 0.1 0.1 0.1 V 2.6 h 0.1 0.1 0.1 V 2.5 h 0.1 0.1 0.1 l 0.1,-0.1 h 0.1 0.1 0.1 l 0.1,-0.1 h 0.1 0.1 0.1 l 0.1,-0.1 h 0.2 0.1 0.1 V 2.1 h 0.1 0.1 V 2 h 0.1 0.1 V 1.9 h 0.1 0.1 V 1.8 h 0.1 0.1 V 1.7 h 0.1 l 0.1,-0.1 h 0.1 0.1 V 1.5 h 0.1 0.1 0.1 0.1 V 1.4 h 0.1 0.1 0.1 V 1.3 h 0.1 0.1 0.1 l 0.1,-0.1 h 0.2 0.1 0.1 0.1 0.1 0.1 V 1.1 h 0.1 0.1 l 0.1,-0.1 h 0.1 l 0.1,-0.1 h 0.1 0.1 V 0.8 h 0.1 0.1 0.1 V 0.7 h 0.1 0.1 0.1 0.1 0.1 0.1 0.1 0.1 0.1 0.2 V 0.6 h 0.1 0.1 V 0.5 h 0.1 l 0.1,-0.1 h 0.1 V 0.2 h 0.1 0.1 V 0.1 h 0.1 0.1 0.1 V 0 h 0.1 0.1 0.1 0.1 0.1 0.1 0.1 0.1 l 0.1,-0.1 h 0.1 0.1 v -0.1 h 0.1 0.1 0.1 v -0.1 h 0.2 0.1 0.1 0.1 l 0.1,-0.1 h 0.1 0.1 0.1 0.1 0.1 0.1 0.1 0.1 0.1 0.1 0.1 v -0.1 h 0.1 0.1 0.1 0.1 0.1 v -0.1 h 0.1 0.1 0.1 0.1 0.2 l 0.1,-0.1 h 0.1 0.1 0.1 v -0.1 h 0.1 0.1 0.1 v -0.1 h 0.1 0.1 0.1 0.1 V -1 h 0.1 0.1 0.1 0.1 v -0.1 h 0.1 0.1 0.1 0.1 v -0.1 h 0.1 0.1 0.1 0.1 0.1 0.1 0.2 0.1 0.1 0.1 0.1 0.1 0.1 0.1 v -0.1 h 0.1 0.1 0.1 0.1 0.1 0.1 0.1 0.1 v -0.1 h 0.1 0.1 0.1 0.1 0.1 0.1 v -0.1 h 0.1 0.1 0.1 v -0.1 h 0.2 0.1 0.1 v -0.1 h 0.1 0.1 0.1 0.1 v -0.1 h 0.1 0.1 0.1 0.1 0.1 v -0.1 h 0.1 0.1 0.1 0.1 V -2 h 0.1 0.1 0.1 0.1 v -0.1 h 0.1 0.1 0.1 v -0.1 h 0.1 0.1 0.2 0.1 l 0.1,-0.1 h 0.1 0.1 0.1 v -0.2 h 0.1 0.1 v -0.1 h 0.1 0.1 v -0.1 h 0.1 v -0.1 h 0.1 l 0.1,-0.1 h 0.1 V -3 h 0.1 l 0.1,-0.1 h 0.1 v -0.1 h 0.1 0.1 v -0.1 h 0.1 0.1 0.1 v -0.1 h 0.1 0.1 l 0.1,-0.1 h 0.2 0.1 0.1 0.1 v -0.1 h 0.1 0.1 v -0.1 h 0.1 0.1 0.1 v -0.1 h 0.1 0.1 v -0.1 h 0.1 V -4 h 0.1 0.1 v -0.1 h 0.1 l 0.1,-0.1 h 0.1 0.1 v -0.1 h 0.1 v -0.1 h 0.1 l 0.1,-0.1 h 0.1 v -0.1 h 0.1 l 0.1,-0.1 h 0.1 v -0.1 h 0.1 0.2 v -0.1 h 0.1 0.1 v -0.2 h 0.1 0.1 l 0.1,-0.1 h 0.1 0.1 v -0.1 h 0.1 0.1 0.1 0.1 v -0.1 h 0.1 0.1 0.1 0.1 v -0.1 h 0.1 0.1 0.1 0.1 0.1 0.1 0.1 v -0.1 h 0.1 0.1 0.2 0.1 0.1 0.1 v -0.1 h 0.1 0.1 0.1 v -0.1 h 0.1 0.1 0.1 v -0.1 h 0.1 V -6 h 0.1 0.1 v -0.1 h 0.1 0.1 v -0.1 h 0.1 0.1 0.1 v -0.1 h 0.1 0.1 l 0.1,-0.1 h 0.1 l 0.1,-0.1 h 0.1 0.1 v -0.1 h 0.2 0.1 v -0.1 h 0.1 0.1 0.1 v -0.1 h 0.1 0.1 0.1 0.1 v -0.1 h 0.1 0.1 0.1 0.1 0.1 V -7 h 0.1 0.1 0.1 0.1 l 0.1,-0.1 h 0.1 0.1 v -0.1 h 0.1 0.1 v -0.1 h 0.1 0.1 0.1 0.2 v -0.1 h 0.1 0.1 0.1 0.1 l 0.1,-0.1 h 0.1 0.1 0.1 0.1 v -0.2 h 0.1 0.1 0.1 l 0.1,-0.1 h 0.1 v -0.1 h 0.1 V -8 l 0.2,-0.1 h 0.1 v -0.1 h 0.1 v -0.1 h 0.1 0.1 0.1 v -0.1 h 0.1 v -0.1 h 0.1 v -0.1 h 0.2 V -8.7 -8.8 -8.9 -9 -9.1 -9.2 h -0.2 v -0.1 -0.1 l -0.1,-0.1 v -0.1 -0.1 -0.1 l 0.1,-0.1 V -10 h 0.2 v -0.1 h 0.1 l 0.1,-0.1 h 0.1 0.1 0.1 0.1 0.1 0.1 v -0.2 h 0.1 0.1 0.1 0.1 0.1 0.1 0.1 0.1 v -0.1 h 0.1 0.1 v -0.1 h 0.1 v -0.1 h 0.1 v -0.1 h 0.1 v -0.1 h 0.1 0.1 V -11 h 0.1 0.2 0.1 0.1 0.1 0.1 0.1 v -0.1 h 0.1 0.1 v -0.1 h 0.1 v -0.1 h 0.1 v -0.1 h 0.1 0.1 v -0.1 h 0.1 0.1 0.1 v -0.1 h 0.1 0.1 0.1 v -0.1 h 0.1 0.1 0.1 0.1 0.1 0.1 0.1 0.2 v 0.1 h 0.1 v 0.1 h 0.1 v 0.1 h 0.1 0.1 0.1 l 0.2,-0.1 h 0.1 v -0.1 h 0.1 v -0.1 h 0.1 v -0.1 h 0.1 v -0.1 h 0.1 V -12 h 0.1 0.1 v -0.1 h 0.1 l 0.1,-0.1 h 0.1 0.1 l 0.1,-0.1 h 0.1 0.1 0.1 0.1 0.1 0.1 0.2 v -0.1 h 0.1 0.1 v -0.1 h 0.1 v -0.1 h 0.1 v -0.1 h 0.1 v -0.1 h 0.1 V -13 h 0.1 0.1 v -0.1 h 0.1 0.1 l 0.1,-0.1 h 0.1 l 0.1,-0.1 h 0.1 0.1 v -0.1 h 0.1 0.1 v -0.1 h 0.1 0.1 v -0.1 h 0.1 0.1 v -0.1 h 0.1 v -0.1 h 0.1 0.1 v -0.1 h 0.2 0.1 l 0.1,-0.1 h 0.1 0.1 0.1 0.1 v -0.1 -0.1 -0.1 -0.1 -0.1 h 0.1 v -0.1 h 0.1 0.1 0.1 0.1 v -0.1 h 0.1 0.1 0.1 0.1 l 0.1,-0.1 h 0.1 0.1 v -0.1 h 0.1 0.1 V -15 h 0.1 0.1 v -0.1 h 0.1 v -0.1 h 0.1 0.2 l 0.1,-0.1 h 0.1 v -0.1 h 0.1 0.1 l 0.1,-0.2 h 0.1 0.1 0.1 0.1 v -0.1 h 0.1 0.1 v -0.1 h 0.1 0.1 v -0.1 h 0.1 l 0.1,-0.1 h 0.1 v -0.1 h 0.1 v -0.1 h 0.1 v -0.1 h 0.1 0.1 l 0.1,-0.1 h 0.1 v -0.1 h 0.1 0.1 v -0.1 h 0.2 0.1 v -0.1 h 0.1 0.1 v -0.1 h 0.1 v -0.1 H -59 V -17 h 0.1 v -0.1 h 0.1 v -0.1 h 0.1 0.1 v -0.1 h 0.1 v -0.1 h 0.1 0.1 l 0.1,-0.1 h 0.1 0.1 v -0.1 h 0.1 0.1 v -0.1 h 0.1 0.1 v -0.1 h 0.1 0.1 l 0.1,-0.1 h 0.1 0.1 0.1 0.2 V -18 h 0.1 0.1 0.1 v -0.2 h 0.1 0.1 v -0.1 h 0.1 v -0.1 h 0.1 v -0.1 h 0.1 l 0.1,-0.1 h 0.1 0.1 v -0.1 h 0.1 0.1 l 0.1,-0.1 h 0.1 0.1 v -0.1 h 0.1 0.1 0.1 0.1 V -19 h 0.1 0.1 v -0.1 h 0.1 0.1 v -0.1 h 0.2 v -0.1 h 0.1 0.1 v -0.1 h 0.1 0.1 v -0.1 h 0.1 0.1 v -0.1 h 0.1 0.1 v -0.1 h 0.1 0.1 v -0.1 h 0.1 v -0.1 h 0.1 l 0.1,-0.1 h 0.1 v -0.1 h 0.1 v -0.1 h 0.1 v -0.1 h 0.1 0.1 v -0.1 h 0.1 0.1 v -0.1 h 0.1 l 0.1,-0.1 h 0.1 v -0.1 h 0.1 l 0.2,-0.2 h 0.1 V -21 h 0.1 v -0.1 h 0.1 v -0.1 h 0.1 l 0.1,-0.1 h 0.1 v -0.1 h 0.1 l 0.1,-0.1 h 0.1 v -0.1 h 0.1 v -0.1 h 0.1 l 0.1,-0.1 h 0.1 l 0.1,-0.1 h 0.1 V -22 h 0.1 v -0.1 h 0.1 l 0.1,-0.1 h 0.1 v -0.1 h 0.1 v -0.1 h 0.1 v -0.1 l 0.1,-0.1 v -0.1 h 0.1 v -0.1 h 0.1 v -0.1 h 0.1 V -23 h 0.2 0.1 0.1 0.1 0.1 0.1 v 0.1 0.1 0.1 h 0.1 v 0.1 0.1 h 0.1 0.1 v 0.1 h 0.1 0.1 0.1 0.1 0.1 0.1 0.1 0.1 0.1 0.1 0.1 0.1 l 0.1,-0.1 h 0.1 0.1 0.1 l 0.2,-0.1 h 0.1 0.1 v -0.1 h 0.1 0.1 0.1 0.1 0.1 0.1 0.1 0.1 0.1 v -0.1 h 0.1 0.1 l 0.1,-0.1 h 0.1 0.1 V -23 h 0.1 l 0.1,-0.1 h 0.1 v -0.1 h 0.1 0.1 v -0.1 h 0.1 0.1 0.1 v -0.2 h 0.2 0.1 0.1 v -0.1 h 0.1 0.1 v -0.1 h 0.1 v -0.1 h 0.1 0.1 v -0.1 h 0.1 0.1 V -24 h 0.1 0.1 v -0.1 h 0.1 0.1 l 0.1,-0.1 h 0.1 0.1 v -0.1 h 0.1 0.1 0.1 v -0.1 h 0.1 l 0.1,-0.1 h 0.1 v -0.1 h 0.1 0.1 l 0.2,-0.1 h 0.1 l 0.1,-0.1 h 0.1 v -0.1 h 0.1 0.1 l 0.1,-0.1 h 0.1 0.1 0.1 v -0.1 h 0.1 0.1 0.1 0.1 0.1 0.1 0.1 0.1 0.1 v -0.1 h 0.1 0.1 l 0.1,-0.1 h 0.1 v -0.1 h 0.1 v -0.1 h 0.1 v -0.1 h 0.1 l 0.2,-0.1 0.1,-0.1 h 0.1 0.1 l 0.1,-0.1 h 0.1 0.1 0.1 v -0.2 h 0.1 0.1 0.1 v -0.1 h 0.1 0.1 0.1 v -0.1 h 0.1 0.1 0.1 0.1 l 0.1,-0.1 h 0.1 0.1 0.1 0.1 0.1 0.1 0.2 v 0.1 h 0.1 0.1 0.1 0.1 0.1 0.1 0.1 0.1 0.1 0.1 0.1 0.1 0.1 0.1 0.1 0.1 v -0.1 h 0.1 0.1 0.1 v -0.1 h 0.1 0.1 v -0.1 h 0.1 0.1 l 0.1,-0.1 h 0.2 0.1 v -0.1 h 0.1 0.1 v -0.1 -0.1 -0.1 l 0.1,-0.1 v -0.1 l 0.1,-0.1 v -0.1 h 0.1 v -0.1 h 0.1 v -0.1 h 0.1 v -0.1 h 0.1 l 0.1,-0.1 0.1,-0.1 h 0.1 v -0.1 h 0.1 0.1 v -0.1 h 0.1 v -0.1 h 0.1 v -0.1 h 0.1 0.1 v -0.1 -0.2 h 0.1 v -0.1 h 0.1 0.1 v -0.1 h 0.1 0.1 0.1 0.1 v 0.1 h 0.2 v 0.1 h 0.1 v 0.2 h 0.1 v 0.1 l 0.1,0.1 v 0.1 h 0.1 0.1 v 0.1 h 0.1 0.1 v 0.1 h 0.1 0.1 0.1 0.1 0.1 v -0.1 h 0.1 0.1 v -0.1 h 0.1 0.1 0.1 0.1 0.1 0.1 0.1 v 0.1 h 0.1 0.1 l 0.1,0.1 h 0.2 0.1 0.1 0.1 0.1 l 0.1,-0.1 h 0.1 0.1 v -0.1 h 0.1 v -0.1 h 0.1 0.1 v -0.1 h 0.1 v -0.1 h 0.1 v -0.2 l 0.2,-0.1 0.2,-0.1 0.2,-0.1 v -0.1 h 0.1 0.1 v -0.1 h 0.1 l 0.1,-0.1 h 0.1 0.1 v -0.1 h 0.2 0.1 v -0.1 h 0.1 0.1 0.1 0.1 0.1 0.1 0.1 0.1 0.1 0.1 0.1 0.1 0.1 0.1 0.1 0.1 0.1 0.1 l 0.1,-0.1 h 0.1 0.1 0.1 0.1 0.2 0.1 0.1 0.1 0.1 0.1 0.1 0.1 0.1 0.1 0.1 0.1 0.1 0.1 0.1 0.1 0.1 0.1 0.1 0.1 0.1 0.1 0.1 0.1 0.1 0.1 0.2 0.1 v -0.1 h 0.1 0.1 0.1 0.1 0.1 0.1 0.1 0.1 0.1 0.1 l 0.1,0.1 h 0.1 0.1 v 0.1 h 0.1 v 0.1 h 0.1 v 0.1 0.1 h 0.1 v 0.1 h 0.1 v 0.1 h 0.1 v 0.1 h 0.1 v 0.1 h 0.1 0.1 0.1 v 0.1 h 0.1 0.2 0.1 0.1 0.1 0.1 0.1 0.1 v 0.2 h 0.1 0.1 v 0.1 h 0.1 0.1 0.1 0.1 0.1 0.1 0.1 0.1 v -0.1 h 0.1 0.1 0.1 0.1 0.1 0.1 0.1 0.1 0.2 0.1 0.1 0.1 0.1 0.1 0.1 0.1 0.1 v -0.2 h 0.1 v -0.1 h 0.1 l 0.1,-0.1 V -29 h 0.1 v -0.1 h 0.1 l 0.1,-0.1 h 0.1 0.1 l 0.1,-0.1 h 0.2 0.1 0.1 0.1 0.1 v -0.1 h -0.1 v -0.1 -0.1 h 0.2 0.2 v 0.1 h 0.1 0.1 0.1 v 0.1 h 0.1 0.1 0.1 0.1 v 0.1 h 0.1 0.1 0.1 v 0.1 h 0.1 0.1 v 0.1 h 0.1 0.1 0.1 0.1 v -0.1 -0.1 -0.1 -0.1 -0.1 -0.1 -0.1 -0.1 -0.1 -0.1 -0.1 -0.1 h 0.1 v -0.1 h 0.1 0.1 l 0.1,-0.1 h 0.1 0.1 0.1 v -0.1 h 0.1 0.1 0.2 0.1 v -0.1 h 0.1 v -0.1 h 0.1 0.1 v -0.1 H -9 V -31 h 0.1 v -0.1 h 0.1 v -0.1 h 0.1 v -0.2 l 0.1,-0.1 v -0.1 h 0.1 v -0.1 h 0.1 v -0.1 h 0.1 v -0.1 l 0.1,-0.1 0.1,-0.1 v -0.1 -0.1 H -8 v -0.1 -0.1 h 0.1 v -0.1 -0.1 -0.1 h 0.1 v -0.1 l 0.1,-0.1 h 0.1 l 0.1,-0.1 0.1,-0.1 h 0.1 v -0.1 h 0.1 0.1 v -0.1 h 0.2 l 0.1,-0.1 h 0.1 v -0.1 h 0.1 0.1 0.1 0.1 0.1 0.1 0.1 0.1 0.1 0.1 0.1 l 0.1,-0.1 h 0.1 0.1 v -0.1 h 0.1 V -34 h 0.1 v -0.1 H -5 v -0.1 h 0.1 v -0.1 -0.1 h 0.1 v -0.1 -0.1 -0.1 -0.1 h -0.1 v -0.1 -0.1 h 0.1 v -0.1 h 0.1 0.1 l 0.1,-0.1 h 0.1 v -0.1 h 0.1 v -0.1 -0.1 -0.1 h 0.1 v -0.1 h 0.1 v -0.1 -0.1 -0.1 H -4 v -0.1 -0.1 h 0.1 v -0.1 -0.1 -0.1 h 0.1 v -0.1 h 0.1 v -0.1 -0.1 -0.1 h 0.1 v -0.1 -0.1 h 0.1 v -0.1 -0.1 h 0.1 v -0.1 h 0.1 v -0.1 -0.1 h 0.1 v -0.1 h 0.1 v -0.1 H -3 v -0.1 l 0.1,-0.1 v -0.1 h 0.1 v -0.1 -0.1 -0.1 h 0.1 0.1 v -0.1 h 0.1 0.1 v -0.1 h 0.1 0.1 v -0.1 l 0.1,-0.1 H -2 l 1.1,-1.2 5.8,-3.8 2.6,-2.4 2.5,-2.5 2.9,-1.7 2.1,-1.1 2.6,-1 4.7,-4.1 1.2,-0.9 1.5,-1.6 0.3,-0.2 0.2,-0.3 v -0.1 l 0.1,-0.1 0.2,-0.1 0.1,-0.1 0.1,-0.1 0.1,-0.1 0.2,-0.1 0.1,-0.1 0.1,-0.1 0.2,-0.1 0.1,-0.1 0.1,-0.1 h 0.2 0.2 l 0.1,-0.1 h 0.1 l 0.1,-0.2 0.1,-0.1 0.1,-0.2 0.1,-0.1 0.1,-0.1 0.2,-0.1 0.2,-0.1 0.1,-0.2 h 0.2 0.1 l 0.1,-0.1 0.2,-0.1 0.1,-0.1 0.1,-0.1 0.1,-0.1 0.1,-0.2 0.1,-0.1 h 0.3 l 0.3,-0.4 0.2,-0.4 0.3,-0.2 h 0.1 l 0.1,-0.1 0.1,-0.1 0.2,-0.1 0.3,-0.1 0.1,-0.1 h 0.1 l 0.2,-0.1 0.2,-0.1 0.1,-0.1 0.1,-0.1 0.2,-0.1 0.2,-0.1 0.1,-0.1 0.1,-0.1 0.1,-0.1 0.1,-0.1 v -0.1 l 0.1,-0.1 0.1,-0.1 0.2,-0.1 h 0.2 l 0.1,-0.1 H 34 l 0.5,-0.2 0.1,-0.1 0.1,-0.1 0.2,-0.1 h 0.1 0.1 v -0.1 h 0.1 0.1 l 0.1,-0.1 0.1,-0.1 0.2,-0.1 0.1,-0.1 0.2,-0.1 0.1,-0.1 0.1,-0.1 0.2,-0.1 0.1,-0.1 0.2,-0.1 0.1,-0.1 H 37 l 0.1,-0.1 0.1,-0.1 0.2,-0.1 0.1,-0.1 0.2,-0.1 0.1,-0.1 0.1,-0.1 0.1,-0.1 0.2,-0.1 0.5,-0.9 0.1,-0.1 0.2,-0.2 0.2,-0.2 0.2,-0.4 0.4,-0.6 0.2,-0.1 0.2,0.1 0.4,-0.3 0.3,-0.1 0.3,-0.5 0.1,0.1 v -0.2 l 0.2,-0.2 0.1,-0.3 v -0.1 -0.1 h 0.1 v 0.1 h 0.1 l 1.4,-0.6 v 0.1 -0.1 l 0.1,-0.1 h 0.1 0.2 l 0.3,-0.1 v -0.1 l 0.1,-0.1 h 0.2 0.1 0.1 l 0.1,-0.1 h 0.1 0.2 l 0.1,-0.1 H 45 l 0.2,-0.1 0.2,-0.1 0.2,-0.1 0.1,-0.1 h 0.2 l 0.2,-0.1 h 0.1 v -0.1 -0.1 h 0.2 l 0.1,-0.2 h 0.1 l 0.1,-0.2 v -0.1 l 0.1,-0.1 0.2,-0.1 0.2,0.1 h 0.1 l 0.1,0.1 h 0.2 0.1 l 0.2,-0.1 0.1,-0.1 h 0.1 l 0.2,-0.1 0.1,-0.1 h 0.2 l 0.1,-0.1 0.1,-0.1 h 0.1 l 0.1,-0.1 0.2,-0.1 h 0.1 l 0.2,-0.1 h 0.1 0.1 l 0.1,-0.1 h 0.1 l 0.2,-0.1 h 0.1 l 0.1,-0.1 h 0.1 l 0.1,-0.1 0.1,-0.1 h 0.2 l 0.1,-0.1 h 0.2 0.1 0.2 l 0.1,-0.1 h 0.1 l 0.2,-0.1 0.1,-0.1 0.1,-0.1 0.1,-0.1 0.1,-0.1 0.2,-0.1 0.1,-0.1 0.1,-0.1 0.2,-0.1 0.1,-0.1 H 53 l 0.1,-0.1 0.3,-0.2 0.1,-0.1 0.2,-0.2 0.1,-0.1 0.1,-0.1 0.1,-0.2 0.1,-0.1 0.1,-0.2 h 0.2 l 0.1,-0.2 h 0.1 0.1 l 0.1,-0.1 h 0.2 0.2 0.1 l 0.1,-0.1 v -0.1 l 0.1,-0.1 0.1,-0.1 0.2,-0.2 1.9,-0.9 1.5,-1.8 2.2,-0.8 5.1,-2.3 3,-0.2 1.7,-2 0.6,-0.8 0.6,-0.3 0.5,0.3 0.4,-0.9 0.2,-0.1 h 0.2 l 0.1,-0.1 h 0.1 l 0.2,-0.1 0.1,-0.1 0.2,-0.1 h 0.1 l 0.2,-0.1 h 0.1 L 75,-90 h 0.1 l 0.2,-0.1 h 0.1 l 0.2,-0.1 0.1,-0.1 0.2,-0.1 0.1,-0.1 0.2,-0.1 h 0.1 l 0.2,-0.1 0.2,-0.1 0.1,-0.1 0.2,-0.2 h 0.1 0.1 0.2 0.1 0.2 0.1 l 0.1,-0.1 0.1,-0.1 0.2,-0.1 0.1,-0.1 0.1,-0.1 0.1,-0.1 0.1,-0.1 v -0.1 h 0.1 v -0.1 0.1 h 0.1 l 0.1,-0.1 h 0.1 0.2 l 0.1,-0.1 v -0.1 l 0.1,-0.2 h 0.2 v 0.1 l 0.3,-0.3 1.8,-1.5 1.8,-0.9 0.7,-0.6 0.8,-0.2 0.6,-0.6 0.6,0.2 0.6,-0.1 0.1,0.7 0.4,0.6 0.6,0.2 0.4,-0.3 0.5,-0.6 0.6,-0.2 0.6,-0.5 0.7,-0.1 0.6,0.2 0.8,0.3 1.7,-0.8 0.5,0.1 0.8,-0.5 0.4,-0.4 1.3,-0.5 1.5,-0.9 0.1,-1.9 0.5,0.3 0.2,-0.4 0.6,-0.2 1.3,-0.4 -0.1,-0.5 -1.1,-0.5 0.8,-0.1 0.6,0.1 v -0.5 l 1.8,-0.9 0.7,-0.3 v 0.7 l 0.1,0.1 0.2,0.4 0.3,-0.3 0.2,-0.4 0.8,-0.1 v -0.4 l 0.5,-0.6 -0.1,0.6 v 0.5 l 0.3,-0.5 h 0.6 l 0.3,-0.6 0.2,-0.5 0.1,-0.8 0.3,0.4 v 0.8 l 0.8,0.4 0.5,-0.2 0.1,-0.5 h 0.5 l -0.6,-0.3 -0.5,-1.1 0.3,-0.6 1.3,0.6 0.6,-0.4 0.4,0.3 1.2,0.2 0.5,-1 0.7,0.2 0.4,-0.9 -0.6,-1.2 -0.4,-1.3 0.4,-0.2 1,0.9 0.9,-0.5 0.6,-0.6 -0.4,-0.5 1.3,0.3 0.4,-0.9 1.8,0.7 0.9,-0.7 1.7,1.7 1,-0.7 -0.8,-1 0.3,-0.2 0.2,-0.3 0.8,0.5 1.5,-0.3 0.7,-0.3 0.2,0.4 0.5,-0.1 0.2,-0.4 0.8,-0.1 1,-0.7 0.2,-1.6 v -0.3 l 0.4,-0.7 0.3,0.1 0.2,-0.2 0.5,-0.3 -0.4,-0.5 0.3,-0.4 0.4,0.2 0.2,-0.1 0.4,-0.1 0.5,-0.2 0.1,-0.7 0.8,0.7 0.6,-0.1 0.4,-0.3 0.3,-0.3 v -0.6 l 0.2,-0.4 h 0.2 l 0.5,-0.3 0.1,-1.6 0.4,-1.6 0.1,1.9 0.2,0.7 0.5,0.6 1,-0.6 0.6,-0.6 0.1,-0.8 -0.2,-0.5 -0.3,-0.7 0.2,-0.3 0.4,0.1 0.4,0.6 0.8,0.9 0.3,0.1 -0.9,-1.5 -0.2,-0.4 v -0.4 l -0.1,-0.6 0.2,0.3 0.5,0.3 0.6,-0.2 0.4,0.9 -0.2,0.3 -0.5,-0.5 0.1,0.5 0.2,0.6 0.2,0.6 0.4,0.4 0.6,-0.3 0.1,-0.4 v -0.2 l 0.5,0.3 0.2,-0.3 -0.7,-1.3 -0.5,-2.1 1.4,2.8 0.4,0.2 0.5,-0.6 -0.8,-2.9 -0.7,-1.8 -0.5,-0.2 -0.2,0.4 v -0.8 -0.7 l 0.6,0.6 -0.1,0.2 0.1,0.2 1,1 0.7,1 0.1,0.9 0.1,0.2 0.3,0.5 0.5,0.7 0.4,-0.3 1.1,-0.2 -0.2,-0.4 0.8,-0.6 -0.5,-1.2 1,1.1 0.7,-0.7 -0.2,-1.7 v -1.7 l -0.2,-0.6 -0.1,-1.6 0.3,-0.4 v 0.6 l 1.7,3.3 0.1,0.7 0.5,0.9 h 0.9 l 0.4,-0.5 1,0.8 1.4,-1.7 0.4,-0.2 0.7,-0.2 0.1,-0.5 0.4,-0.9 0.4,-0.7 0.9,-0.2 0.9,-0.2 0.5,0.3 v 0.4 l 0.3,0.3 0.9,-0.3 v -0.6 l 0.2,-0.5 h 1.3 l -0.4,-1 h -0.6 l -0.3,-0.4 0.2,-0.1 0.1,-0.3 0.1,-0.6 -0.2,-0.4 0.1,-0.4 0.1,0.3 0.2,-0.2 0.4,-1 v -0.7 l 0.1,-0.7 -0.3,-0.3 -0.2,0.2 -0.2,0.6 v 0.3 l -0.1,0.5 -0.3,0.2 -0.1,-0.5 -0.6,0.5 0.4,-1 0.1,-1.7 0.2,-1.1 v -1 l -0.1,-2.1 0.3,1.6 0.8,0.8 -0.1,1 v 1.2 l 0.1,-0.1 0.7,-0.6 0.1,-0.6 0.6,-0.7 h 0.5 l 0.9,0.3 v 0.3 l -0.3,0.3 -0.2,0.4 -0.6,0.2 0.2,0.7 0.7,0.1 0.3,0.2 h 0.6 l 0.3,-0.5 -0.3,-0.5 -0.1,-0.2 0.3,-0.5 -0.1,-0.5 1.3,0.7 0.3,0.1 h 0.3 l 0.6,-0.3 0.1,-0.7 0.3,0.1 0.9,0.5 1.2,0.5 0.5,-0.3 0.6,-0.2 0.8,0.7 1.9,0.8 1.5,1.2 0.8,1.2 1.2,0.5 1,1.2 2.1,1.9 1.9,0.9 0.5,0.4 0.3,0.8 0.6,-0.3 0.7,-0.4 0.3,0.4 0.5,-0.1 0.6,-0.2 -0.7,-0.3 -0.5,-0.5 1.7,-0.1 1.2,-0.8 -3.9,-2.7 -3.4,-0.9 -1,-1.8 -2.9,-3.9 -3.1,-3.1 -2.7,-1 h -2 l -1.7,-1.8 -1.8,0.1 -1.4,-1.8 -1.6,-0.9 -1.7,0.1 -3.5,0.2 -2.2,0.7 -1.1,-0.7 -1.2,-0.1 -1.4,-0.1 h -1.4 l -0.9,0.5 -0.7,0.4 -1.4,-1.4 -1.5,0.4 -1.6,-0.7 -3.6,-1.4 -3.2,-1.8 -0.2,-1.7 3.4,1.1 3.5,0.8 0.6,-0.6 0.9,0.5 1.3,-0.5 h 2.1 l 0.8,-0.8 0.6,-0.2 -0.7,-0.9 -1.3,-1.2 1.1,-0.8 1.9,0.4 2.2,-0.3 -1,-1.1 0.8,-0.7 0.1,-1.5 2,0.1 1.5,1.2 -0.1,-1.3 1.1,-0.8 h 1.4 l 1.1,0.8 1.7,0.3 -0.1,-2 0.8,-0.4 0.3,-0.5 0.8,-1 0.6,0.3 0.3,-0.5 0.7,-0.4 0.8,-0.9 1.5,-0.5 1.8,0.1 1.6,0.3 2.5,1.4 h 0.9 l 1.3,0.8 0.6,-0.5 3.8,0.5 0.6,-0.8 2.6,1.1 -3.4,-2.4 -0.6,-0.9 -1.2,-0.8 -0.8,-0.8 2.8,-0.7 -2.1,-0.7 -0.8,-0.4 h -1 l -1.2,-0.8 -2.3,-0.7 -3.6,-1.8 -2.3,0.2 -3,-1.1 -1.4,0.9 h -1.4 -1.4 l -2.1,-1 -1.3,0.8 -2.1,0.1 -1.4,2 h -1.8 -1.6 l -1.7,-0.5 -1.5,-0.5 -1.3,-0.4 -1.8,-0.5 -2,-1.2 -2.1,-0.9 -1.3,-0.2 -0.1,0.5 -3,-0.2 -2.1,-1.1 -2,-1 -1.7,-0.4 -2.1,-0.1 -2.2,-0.2 -1.7,1 -2.7,-0.1 -2.5,-0.3 -2.4,0.5 h -2 l -2.3,-0.2 -1.6,-1.2 -2.1,0.2 -3.2,-1.7 -1.2,1.1 -2,0.3 -2.3,-0.3 -1.2,0.8 -1.4,-0.5 -1.5,0.2 -2.6,0.1 -1.4,1.5 -3.5,1.4 -1.8,-0.3 -1.6,0.8 -1.8,-0.8 -1.3,0.3 -3.1,1.1 -1.3,-0.8 -2.9,-1.1 -3,1.3 -2.2,0.1 -2.5,1 -2.7,1.3 -2.9,1 -2.7,0.2 -4.7,2.3 -2.3,0.3 -1,1 -3.1,2.6 -3.5,1.4 -2,0.2 -2,0.1 -2.3,0.1 -0.8,1.4 -1.5,0.8 -1.4,0.3 -1.7,-0.2 -1.9,-0.7 -2.1,1.1 -2.8,-0.1 -1.6,0.7 -3,0.5 -2.6,0.7 -2.5,0.4 H 9 l -1.4,-0.3 -1.3,-0.5 -1.5,-1 -2.2,0.1 -2.5,0.4 -2.8,-1.5 h -1.6 l -1.8,0.1 -1.9,0.7 -1.4,1 h -2.8 l -1.6,-0.4 -1.4,-0.5 -1.5,-0.4 -2.4,0.6 -1.4,0.9 -0.6,-0.4 -2.7,0.1 -1.6,0.4 -2,0.1 -0.9,-0.1 -2.3,1.5 -1,-0.9 -2.6,0.3 -3.4,-0.1 -2.1,2 -1.7,2.5 -0.2,1.8 -1.2,0.1 -2.7,2 -1.9,0.8 -2,1.4 -1.9,0.9 -2.1,1 -2.8,0.8 -5.2,1.8 -5.7,1.7 -2.9,0.8 -2,1.1 -2.4,-0.7 -6.3,1.4 -4,2.1 -6.2,5 -7.4,4.4 -2,-0.3 -5.8,4 -3.7,1.4 -0.9,1.1 -1.4,0.5 -1.6,-0.2 -3.1,1.1 -1.3,-0.4 -0.8,1.8 -1.3,-0.6 -1.8,2.4 -2,1.8 -3.1,1.8 -2.1,1.7 -1.5,-0.1 -2,3.1 -1.6,4.2 -6.9,12.1 -2.4,1.8 -3.9,4.2 -6.4,9.3 -3.8,1.6 -7.2,12.3 -2.4,2.9 -1.7,6.6 0.6,1.6 1.7,2.2 -0.3,5.6 -4.7,8 -2.4,2.4 -2.6,1.6 -0.9,2 h -1.4 l -3.6,2.7 -1,1.1 0.4,12.1 1.6,3.1 -0.8,3.6 0.2,4 3.9,3.4 -0.3,1.2 0.3,5.6 1.4,8.5 12.3,-1.8 9.3,1.8 z"
                         style="fill:#a80000;fill-opacity:0;fill-rule:evenodd;stroke:#e60000;stroke-width:0.56339114;stroke-linecap:round;stroke-linejoin:round;stroke-miterlimit:4;stroke-dasharray:none;stroke-opacity:1"
                         id="path1207" /></g></g></g></g><g
                 id="g1233"
                 style="stroke-width:2.08530433;stroke-miterlimit:4;stroke-dasharray:none"><g
                   clip-path="url(#clipPath1179)"
                   id="g1231"
                   style="stroke-width:2.08530433;stroke-miterlimit:4;stroke-dasharray:none"><g
                     id="g1229"
                     style="stroke-width:2.08530433;stroke-miterlimit:4;stroke-dasharray:none"><g
                       transform="translate(18.583618,22.384812)"
                       id="g1227"
                       style="stroke-width:2.08530433;stroke-miterlimit:4;stroke-dasharray:none"><g
                         id="g1219"
                         style="stroke-width:2.08530433;stroke-miterlimit:4;stroke-dasharray:none" /><g
                         id="g1225"
                         style="stroke-width:2.08530433;stroke-miterlimit:4;stroke-dasharray:none"><g
                           clip-path="url(#clipPath1183)"
                           id="g1223"
                           style="stroke-width:2.08530433;stroke-miterlimit:4;stroke-dasharray:none"><g
                             id="g1221"
                             style="stroke-width:2.08530433;stroke-miterlimit:4;stroke-dasharray:none" /></g></g></g></g></g></g><g
                 transform="matrix(2.7028163,0,0,-2.7342305,-5.1975104,1874.1301)"
                 id="g1257"
                 style="stroke-width:0.76708523;stroke-miterlimit:4;stroke-dasharray:none"><path
                   d="M 8.9,781.3 H 594.5 V 298.1 H 8.9 Z"
                   style="fill:none;stroke:#000000;stroke-width:0.76708523;stroke-linecap:round;stroke-linejoin:round;stroke-miterlimit:4;stroke-dasharray:none;stroke-opacity:1"
                   id="path1235" /><path
                   d="m 223.7072,307.55008 v 8.04097 h 84.93338 v -8.04097 z"
                   style="fill:#000000;fill-opacity:1;fill-rule:evenodd;stroke:#000000;stroke-width:0.76708523;stroke-linecap:round;stroke-linejoin:round;stroke-miterlimit:4;stroke-dasharray:none;stroke-opacity:1"
                   id="path1237" /><path
                   d="m 308.64058,307.55008 v 8.04097 h 84.93338 v -8.04097 z"
                   style="fill:none;stroke:#000000;stroke-width:0.76708523;stroke-linecap:round;stroke-linejoin:round;stroke-miterlimit:4;stroke-dasharray:none;stroke-opacity:1"
                   id="path1239" /><text
                   transform="scale(1.0159596,-0.98429111)"
                   style="font-variant:normal;font-weight:normal;font-stretch:normal;font-size:28.1385px;font-family:Arial;-inkscape-font-specification:ArialMT;writing-mode:lr-tb;fill:#000000;fill-opacity:1;fill-rule:nonzero;stroke:none;stroke-width:1.32108;stroke-miterlimit:4;stroke-dasharray:none"
                   id="text1243"
                   x="209.61256"
                   y="-328.37961"><tspan
                     x="209.61256"
                     y="-328.37961"
                     id="tspan1241"
                     style="stroke-width:1.32108;stroke-miterlimit:4;stroke-dasharray:none">0</tspan></text><text
                   transform="scale(1.0159596,-0.98429111)"
                   style="font-variant:normal;font-weight:normal;font-stretch:normal;font-size:22.442px;font-family:Arial;-inkscape-font-specification:ArialMT;writing-mode:lr-tb;fill:#000000;fill-opacity:1;fill-rule:nonzero;stroke:none;stroke-width:1.05363;stroke-miterlimit:4;stroke-dasharray:none"
                   id="text1247"
                   x="375.71921"
                   y="-328.31006"><tspan
                     x="375.71921 388.19696 394.43585"
                     y="-328.31006"
                     sodipodi:role="line"
                     id="tspan1245"
                     style="stroke-width:1.05363;stroke-miterlimit:4;stroke-dasharray:none">0.5</tspan></text><text
                   transform="scale(1.0159596,-0.98429111)"
                   style="font-variant:normal;font-weight:normal;font-stretch:normal;font-size:16.3386px;font-family:Arial;-inkscape-font-specification:ArialMT;writing-mode:lr-tb;fill:#000000;fill-opacity:1;fill-rule:nonzero;stroke:none;stroke-width:0.767085;stroke-miterlimit:4;stroke-dasharray:none"
                   id="text1251"
                   x="287.84158"
                   y="-328.23557"><tspan
                     sodipodi:role="line"
                     id="tspan1249"
                     style="stroke-width:0.767085;stroke-miterlimit:4;stroke-dasharray:none"
                     y="-328.23557"
                     x="287.84158" /></text><text
                   transform="scale(1.0159596,-0.98429111)"
                   style="font-variant:normal;font-weight:normal;font-stretch:normal;font-size:22.2663px;font-family:Arial;-inkscape-font-specification:ArialMT;writing-mode:lr-tb;fill:#000000;fill-opacity:1;fill-rule:nonzero;stroke:none;stroke-width:1.04538;stroke-miterlimit:4;stroke-dasharray:none"
                   id="text1255"
                   x="390.97949"
                   y="-308.27609"><tspan
                     x="390.97949"
                     y="-308.27609"
                     sodipodi:role="line"
                     id="tspan1253"
                     style="stroke-width:1.04538;stroke-miterlimit:4;stroke-dasharray:none">Kilometers</tspan></text></g></g></g></g></g><path
         style="fill:none;stroke:#000000;stroke-width:1.00094608;stroke-linecap:butt;stroke-linejoin:miter;stroke-opacity:1;stroke-miterlimit:4;stroke-dasharray:none"
         d="M 407.62726,918.53534 770.59077,701.19192"
         id="path3147"
         clip-path="url(#clipPath5879)" /><text
         xml:space="preserve"
         style="font-size:51.4625px;line-height:1.25;font-family:sans-serif;stroke-width:2.57313"
         x="299.85257"
         y="-862.97638"
         id="text8789"
         transform="scale(1,-1)"><tspan
           sodipodi:role="line"
           id="tspan8787"
           style="stroke-width:2.57313"
           x="299.85257"
           y="-862.97638">1966</tspan></text><text
         xml:space="preserve"
         style="font-size:51.4625px;line-height:1.25;font-family:sans-serif;fill:#8503a9;fill-opacity:1;stroke-width:2.57313"
         x="210.8047"
         y="-778.96497"
         id="text8789-5"
         transform="scale(1,-1)"><tspan
           sodipodi:role="line"
           id="tspan8787-7"
           style="fill:#8503a9;fill-opacity:1;stroke-width:2.57313"
           x="210.8047"
           y="-778.96497">1998</tspan></text><text
         xml:space="preserve"
         style="font-size:41.17px;line-height:1.25;font-family:sans-serif;stroke-width:1.28656;fill:#70a800;fill-opacity:1"
         x="121.62269"
         y="-716.77881"
         id="text8789-7"
         transform="scale(1,-1)"><tspan
           sodipodi:role="line"
           id="tspan8787-9"
           style="font-size:41.17px;stroke-width:1.28656;fill:#70a800;fill-opacity:1"
           x="121.62269"
           y="-716.77881">2005</tspan></text><text
         xml:space="preserve"
         style="font-size:51.4625px;line-height:1.25;font-family:sans-serif;fill:#ea2d2d;fill-opacity:1;stroke-width:2.57313"
         x="98.456085"
         y="-631.46875"
         id="text8789-6"
         transform="scale(1,-1)"><tspan
           sodipodi:role="line"
           id="tspan8787-2"
           style="fill:#ea2d2d;fill-opacity:1;stroke-width:2.57313"
           x="98.456085"
           y="-631.46875">2015</tspan></text><text
         xml:space="preserve"
         style="font-size:51.4625px;line-height:1.25;font-family:sans-serif;stroke-width:2.57313"
         x="-93.41246"
         y="-606.81921"
         id="text47737"
         transform="matrix(0.88981932,-0.45631302,-0.45631302,-0.88981932,0,0)"><tspan
           sodipodi:role="line"
           id="tspan47735"
           style="stroke-width:2.57313"
           x="-93.41246"
           y="-606.81921">Grinnell Glacier</tspan></text></g><g
       id="g218" /><g
       id="g220" /><g
       id="g222" /><g
       id="g224" /><g
       id="g226" /><g
       id="g228" /><g
       id="g230" /><g
       id="g232" /><g
       id="g234" /><g
       id="g236" /><g
       id="g238" /><g
       id="g240" /><g
       id="g242" /><g
       id="g244"><text
         transform="matrix(1,0,0,-1,18.12,272.86)"
         style="font-variant:normal;font-weight:normal;font-size:12px;font-family:Helvetica;-inkscape-font-specification:Helvetica;writing-mode:lr-tb;fill:#4d4d4d;fill-opacity:1;fill-rule:nonzero;stroke:none"
         id="text248"><tspan
           x="0 6.6719999 13.344 20.016001"
           y="0"
           sodipodi:role="line"
           id="tspan246">1966</tspan></text><text
         transform="matrix(1,0,0,-1,250.53,272.86)"
         style="font-variant:normal;font-weight:normal;font-size:12px;font-family:Helvetica;-inkscape-font-specification:Helvetica;writing-mode:lr-tb;fill:#4d4d4d;fill-opacity:1;fill-rule:nonzero;stroke:none"
         id="text252"><tspan
           x="0 6.6719999 13.344 20.016001"
           y="0"
           sodipodi:role="line"
           id="tspan250">1998</tspan></text><text
         transform="matrix(1,0,0,-1,301.37,272.86)"
         style="font-variant:normal;font-weight:normal;font-size:12px;font-family:Helvetica;-inkscape-font-specification:Helvetica;writing-mode:lr-tb;fill:#4d4d4d;fill-opacity:1;fill-rule:nonzero;stroke:none"
         id="text256"><tspan
           x="0 6.6719999 13.344 20.016001"
           y="0"
           sodipodi:role="line"
           id="tspan254">2005</tspan></text><text
         transform="matrix(1,0,0,-1,373.99,272.86)"
         style="font-variant:normal;font-weight:normal;font-size:12px;font-family:Helvetica;-inkscape-font-specification:Helvetica;writing-mode:lr-tb;fill:#4d4d4d;fill-opacity:1;fill-rule:nonzero;stroke:none"
         id="text260"><tspan
           x="0 6.6719999 13.344 20.016001"
           y="0"
           sodipodi:role="line"
           id="tspan258">2015</tspan></text></g><g
       id="g262" /><g
       id="g264" /><g
       id="g266" /><g
       id="g268" /><g
       id="g270" /><g
       id="g272" /><g
       id="g274" /><g
       id="g276" /><g
       id="g278" /><g
       id="g280" /><g
       id="g282" /><g
       id="g284" /><g
       id="g286" /><g
       id="g288" /><g
       id="g290" /><g
       id="g292" /><g
       id="g294" /><g
       id="g296" /><g
       id="g298" /><g
       id="g300" /><g
       id="g302" /><g
       id="g304" /><g
       id="g306" /><g
       id="g308" /><g
       id="g310"><text
         transform="matrix(1,0,0,-1,183.94,292.01)"
         style="font-variant:normal;font-weight:normal;font-size:11px;font-family:Helvetica;-inkscape-font-specification:Helvetica;writing-mode:lr-tb;fill:#000000;fill-opacity:1;fill-rule:nonzero;stroke:none"
         id="text314"><tspan
           x="0 7.9419999 14.058 23.111 29.226999 31.669001 37.785 40.842999 43.285 48.509998 54.625999 57.683998 64.471001 70.586998 74.25 79.75 85.865997 91.982002 95.040001 98.098 104.214 110.33 115.83 121.33 124.388 130.504 133.562 136.62 143.957 147.62 153.73599"
           y="0"
           sodipodi:role="line"
           id="tspan312">Cumulative Percent Loss of Area</tspan></text></g><g
       id="g316" /><g
       id="g318"><text
         transform="matrix(1,0,0,-1,119.1,308.47)"
         style="font-variant:normal;font-weight:bold;font-size:14px;font-family:Helvetica;-inkscape-font-specification:Helvetica-Bold;writing-mode:lr-tb;fill:#000000;fill-opacity:1;fill-rule:nonzero;stroke:none"
         id="text322"><tspan
           x="0 7.7839999 15.568 19.459999 28.014 35.798 41.034 49.728001 57.512001 65.295998 69.958 73.849998 84.741997 88.634003 96.417999 104.202 108.094 115.878 121.114 128.89799 132.78999 136.68201 145.23599 149.12801 160.02 163.912 171.696 179.48 183.37199 191.15601 196.60201 200.494 210.60201 218.386 223.048 226.94 235.494 244.048 251.832 255.724 259.616 268.534 276.31799 281.76401"
           y="0"
           sodipodi:role="line"
           id="tspan320">10 Largest Glaciers in Glacier National Park</tspan></text></g><g
       id="g324" /><g
       id="g326"><text
         transform="matrix(1,0,0,-1,425.42,7.46)"
         style="font-variant:normal;font-weight:normal;font-size:9px;font-family:Helvetica;-inkscape-font-specification:Helvetica;writing-mode:lr-tb;fill:#000000;fill-opacity:1;fill-rule:nonzero;stroke:none"
         id="text330"><tspan
           x="0 6.4980001 11.502 14.004 19.007999 21.51 24.011999 29.061001 34.064999 39.069 42.066002 47.07 49.571999 54.576 57.077999 59.580002 64.584 66.582001 69.084 71.585999 74.087997 79.092003 84.096001 89.099998"
           y="0"
           sodipodi:role="line"
           id="tspan328">Data: Fagre et al., 2017</tspan></text></g><g
       id="g332" /><g
       id="g334" /><g
       id="g336" /><g
       id="g338" /></g></svg>
